%TF.GenerationSoftware,KiCad,Pcbnew,(7.0.0)*%
%TF.CreationDate,2023-04-04T12:28:07-04:00*%
%TF.ProjectId,scm-pcb,73636d2d-7063-4622-9e6b-696361645f70,2*%
%TF.SameCoordinates,Original*%
%TF.FileFunction,Copper,L2,Bot*%
%TF.FilePolarity,Positive*%
%FSLAX46Y46*%
G04 Gerber Fmt 4.6, Leading zero omitted, Abs format (unit mm)*
G04 Created by KiCad (PCBNEW (7.0.0)) date 2023-04-04 12:28:07*
%MOMM*%
%LPD*%
G01*
G04 APERTURE LIST*
%TA.AperFunction,NonConductor*%
%ADD10C,0.200000*%
%TD*%
%TA.AperFunction,ComponentPad*%
%ADD11R,1.524000X1.524000*%
%TD*%
%TA.AperFunction,ComponentPad*%
%ADD12C,1.524000*%
%TD*%
%TA.AperFunction,ComponentPad*%
%ADD13C,6.200000*%
%TD*%
%TA.AperFunction,ComponentPad*%
%ADD14R,1.447800X1.447800*%
%TD*%
%TA.AperFunction,ComponentPad*%
%ADD15C,1.447800*%
%TD*%
%TA.AperFunction,ComponentPad*%
%ADD16C,1.752600*%
%TD*%
%TA.AperFunction,ComponentPad*%
%ADD17R,1.574800X1.574800*%
%TD*%
%TA.AperFunction,ComponentPad*%
%ADD18C,1.574800*%
%TD*%
%TA.AperFunction,ComponentPad*%
%ADD19R,1.600000X1.600000*%
%TD*%
%TA.AperFunction,ComponentPad*%
%ADD20O,1.600000X1.600000*%
%TD*%
%TA.AperFunction,ComponentPad*%
%ADD21R,3.000000X3.000000*%
%TD*%
%TA.AperFunction,ComponentPad*%
%ADD22R,1.371600X1.371600*%
%TD*%
%TA.AperFunction,ComponentPad*%
%ADD23C,1.371600*%
%TD*%
%TA.AperFunction,ComponentPad*%
%ADD24R,2.159000X2.159000*%
%TD*%
%TA.AperFunction,ComponentPad*%
%ADD25C,2.159000*%
%TD*%
%TA.AperFunction,ViaPad*%
%ADD26C,0.800000*%
%TD*%
G04 APERTURE END LIST*
D10*
X162964600Y-110250600D02*
X162990000Y-110250600D01*
X162990000Y-110250600D02*
X162990000Y-110276000D01*
X162990000Y-110276000D02*
X162964600Y-110276000D01*
X162964600Y-110276000D02*
X162964600Y-110250600D01*
D11*
%TO.P,J1,1,3V3*%
%TO.N,unconnected-(J1-3V3-Pad1)*%
X105431999Y-120947999D03*
D12*
%TO.P,J1,2,5V*%
%TO.N,Net-(#FLG03-pwr)*%
X102892000Y-120948000D03*
%TO.P,J1,3,SDA/GPIO2*%
%TO.N,unconnected-(J1-SDA{slash}GPIO2-Pad3)*%
X105432000Y-118408000D03*
%TO.P,J1,4,5V*%
%TO.N,Net-(#FLG03-pwr)*%
X102892000Y-118408000D03*
%TO.P,J1,5,SCL/GPIO3*%
%TO.N,unconnected-(J1-SCL{slash}GPIO3-Pad5)*%
X105432000Y-115868000D03*
%TO.P,J1,6,GND*%
%TO.N,GND*%
X102892000Y-115868000D03*
%TO.P,J1,7,GCLK0/GPIO4*%
%TO.N,unconnected-(J1-GCLK0{slash}GPIO4-Pad7)*%
X105432000Y-113328000D03*
%TO.P,J1,8,GPIO14/TXD*%
%TO.N,unconnected-(J1-GPIO14{slash}TXD-Pad8)*%
X102892000Y-113328000D03*
%TO.P,J1,9,GND*%
%TO.N,unconnected-(J1-GND-Pad9)*%
X105432000Y-110788000D03*
%TO.P,J1,10,GPIO15/RXD*%
%TO.N,unconnected-(J1-GPIO15{slash}RXD-Pad10)*%
X102892000Y-110788000D03*
%TO.P,J1,11,GPIO17*%
%TO.N,unconnected-(J1-GPIO17-Pad11)*%
X105432000Y-108248000D03*
%TO.P,J1,12,GPIO18/PWM0*%
%TO.N,unconnected-(J1-GPIO18{slash}PWM0-Pad12)*%
X102892000Y-108248000D03*
%TO.P,J1,13,GPIO27*%
%TO.N,unconnected-(J1-GPIO27-Pad13)*%
X105432000Y-105708000D03*
%TO.P,J1,14,GND*%
%TO.N,unconnected-(J1-GND-Pad14)*%
X102892000Y-105708000D03*
%TO.P,J1,15,GPIO22*%
%TO.N,unconnected-(J1-GPIO22-Pad15)*%
X105432000Y-103168000D03*
%TO.P,J1,16,GPIO23*%
%TO.N,unconnected-(J1-GPIO23-Pad16)*%
X102892000Y-103168000D03*
%TO.P,J1,17,3V3*%
%TO.N,unconnected-(J1-3V3-Pad17)*%
X105432000Y-100628000D03*
%TO.P,J1,18,GPIO24*%
%TO.N,unconnected-(J1-GPIO24-Pad18)*%
X102892000Y-100628000D03*
%TO.P,J1,19,MOSI0/GPIO10*%
%TO.N,Net-(J1-MOSI0{slash}GPIO10)*%
X105432000Y-98088000D03*
%TO.P,J1,20,GND*%
%TO.N,unconnected-(J1-GND-Pad20)*%
X102892000Y-98088000D03*
%TO.P,J1,21,MISO0/GPIO9*%
%TO.N,Net-(J1-MISO0{slash}GPIO9)*%
X105432000Y-95548000D03*
%TO.P,J1,22,GPIO25*%
%TO.N,unconnected-(J1-GPIO25-Pad22)*%
X102892000Y-95548000D03*
%TO.P,J1,23,SCLK0/GPIO11*%
%TO.N,Net-(J1-SCLK0{slash}GPIO11)*%
X105432000Y-93008000D03*
%TO.P,J1,24,~{CE0}/GPIO8*%
%TO.N,Net-(J1-~{CE0}{slash}GPIO8)*%
X102892000Y-93008000D03*
%TO.P,J1,25,GND*%
%TO.N,unconnected-(J1-GND-Pad25)*%
X105432000Y-90468000D03*
%TO.P,J1,26,~{CE1}/GPIO7*%
%TO.N,unconnected-(J1-~{CE1}{slash}GPIO7-Pad26)*%
X102892000Y-90468000D03*
%TO.P,J1,27,ID_SD/GPIO0*%
%TO.N,unconnected-(J1-ID_SD{slash}GPIO0-Pad27)*%
X105432000Y-87928000D03*
%TO.P,J1,28,ID_SC/GPIO1*%
%TO.N,unconnected-(J1-ID_SC{slash}GPIO1-Pad28)*%
X102892000Y-87928000D03*
%TO.P,J1,29,GCLK1/GPIO5*%
%TO.N,unconnected-(J1-GCLK1{slash}GPIO5-Pad29)*%
X105432000Y-85388000D03*
%TO.P,J1,30,GND*%
%TO.N,unconnected-(J1-GND-Pad30)*%
X102892000Y-85388000D03*
%TO.P,J1,31,GCLK2/GPIO6*%
%TO.N,unconnected-(J1-GCLK2{slash}GPIO6-Pad31)*%
X105432000Y-82848000D03*
%TO.P,J1,32,PWM0/GPIO12*%
%TO.N,unconnected-(J1-PWM0{slash}GPIO12-Pad32)*%
X102892000Y-82848000D03*
%TO.P,J1,33,PWM1/GPIO13*%
%TO.N,unconnected-(J1-PWM1{slash}GPIO13-Pad33)*%
X105432000Y-80308000D03*
%TO.P,J1,34,GND*%
%TO.N,unconnected-(J1-GND-Pad34)*%
X102892000Y-80308000D03*
%TO.P,J1,35,GPIO19/MISO1*%
%TO.N,unconnected-(J1-GPIO19{slash}MISO1-Pad35)*%
X105432000Y-77768000D03*
%TO.P,J1,36,GPIO16*%
%TO.N,unconnected-(J1-GPIO16-Pad36)*%
X102892000Y-77768000D03*
%TO.P,J1,37,GPIO26*%
%TO.N,unconnected-(J1-GPIO26-Pad37)*%
X105432000Y-75228000D03*
%TO.P,J1,38,GPIO20/MOSI1*%
%TO.N,unconnected-(J1-GPIO20{slash}MOSI1-Pad38)*%
X102892000Y-75228000D03*
%TO.P,J1,39,GND*%
%TO.N,unconnected-(J1-GND-Pad39)*%
X105432000Y-72688000D03*
%TO.P,J1,40,GPIO21/SCLK1*%
%TO.N,unconnected-(J1-GPIO21{slash}SCLK1-Pad40)*%
X102892000Y-72688000D03*
%TO.P,J1,41*%
%TO.N,N/C*%
X111555000Y-66588000D03*
%TO.P,J1,42*%
X109015000Y-66588000D03*
%TO.P,J1,43*%
X111555000Y-69128000D03*
%TO.P,J1,44*%
X109015000Y-69128000D03*
D13*
%TO.P,J1,S1*%
X104162000Y-125818000D03*
%TO.P,J1,S2*%
X104162000Y-67818000D03*
%TO.P,J1,S3*%
X153162000Y-67818000D03*
%TO.P,J1,S4*%
X153162000Y-125818000D03*
%TD*%
D14*
%TO.P,R3,1*%
%TO.N,GND*%
X131317999Y-72548949D03*
D15*
%TO.P,R3,2*%
%TO.N,Net-(U2-CH2)*%
X131318000Y-85502950D03*
%TD*%
D16*
%TO.P,C1,1*%
%TO.N,GND*%
X128858000Y-127054001D03*
%TO.P,C1,2*%
%TO.N,Net-(D1-K)*%
X133858000Y-114554000D03*
%TO.P,C1,3*%
X123858000Y-114554000D03*
%TD*%
D17*
%TO.P,R1,1*%
%TO.N,Net-(D1-K)*%
X130352599Y-106719999D03*
D18*
%TO.P,R1,2*%
%TO.N,Net-(#FLG03-pwr)*%
X112852000Y-106720000D03*
%TD*%
D19*
%TO.P,U2,1,CH0*%
%TO.N,Net-(D1-K)*%
X122984999Y-92495999D03*
D20*
%TO.P,U2,2,CH1*%
%TO.N,Net-(#FLG03-pwr)*%
X122984999Y-89955999D03*
%TO.P,U2,3,CH2*%
%TO.N,Net-(U2-CH2)*%
X122984999Y-87415999D03*
%TO.P,U2,4,CH3*%
%TO.N,unconnected-(U2-CH3-Pad4)*%
X122984999Y-84875999D03*
%TO.P,U2,5,CH4*%
%TO.N,unconnected-(U2-CH4-Pad5)*%
X122984999Y-82335999D03*
%TO.P,U2,6,CH5*%
%TO.N,unconnected-(U2-CH5-Pad6)*%
X122984999Y-79795999D03*
%TO.P,U2,7,CH6*%
%TO.N,unconnected-(U2-CH6-Pad7)*%
X122984999Y-77255999D03*
%TO.P,U2,8,CH7*%
%TO.N,unconnected-(U2-CH7-Pad8)*%
X122984999Y-74715999D03*
%TO.P,U2,9,DGND*%
%TO.N,GND*%
X115364999Y-74715999D03*
%TO.P,U2,10,~{CS}/SHDN*%
%TO.N,Net-(J1-~{CE0}{slash}GPIO8)*%
X115364999Y-77255999D03*
%TO.P,U2,11,Din*%
%TO.N,Net-(J1-MOSI0{slash}GPIO10)*%
X115364999Y-79795999D03*
%TO.P,U2,12,Dout*%
%TO.N,Net-(J1-MISO0{slash}GPIO9)*%
X115364999Y-82335999D03*
%TO.P,U2,13,CLK*%
%TO.N,Net-(J1-SCLK0{slash}GPIO11)*%
X115364999Y-84875999D03*
%TO.P,U2,14,AGND*%
%TO.N,GND*%
X115364999Y-87415999D03*
%TO.P,U2,15,Vref*%
%TO.N,Net-(#FLG03-pwr)*%
X115364999Y-89955999D03*
%TO.P,U2,16,Vdd*%
X115364999Y-92495999D03*
%TD*%
D21*
%TO.P,REF\u002A\u002A,1*%
%TO.N,GND*%
X164566599Y-105640599D03*
%TO.P,REF\u002A\u002A,2*%
%TO.N,+6V*%
X182600599Y-105640599D03*
%TO.P,REF\u002A\u002A,3*%
%TO.N,GND*%
X164591999Y-65559399D03*
%TO.P,REF\u002A\u002A,4*%
%TO.N,+20V*%
X182651399Y-65610199D03*
%TD*%
D22*
%TO.P,R2,1*%
%TO.N,+20V*%
X144779999Y-72897999D03*
D23*
%TO.P,R2,2*%
%TO.N,Net-(U2-CH2)*%
X144780000Y-84582000D03*
%TD*%
D24*
%TO.P,D1,1,K*%
%TO.N,Net-(D1-K)*%
X134656749Y-106719999D03*
D25*
%TO.P,D1,2,A*%
%TO.N,+6V*%
X154722750Y-106720000D03*
%TD*%
D26*
%TO.N,GND*%
X110490000Y-86995000D03*
X107950000Y-89535000D03*
X108204000Y-93980000D03*
X131318000Y-67818000D03*
X158750000Y-90932000D03*
X97790000Y-80772000D03*
X154432000Y-80772000D03*
X97790000Y-83312000D03*
X108712000Y-103124000D03*
X121920000Y-70358000D03*
X181610000Y-130810000D03*
X191008000Y-78486000D03*
X97790000Y-73152000D03*
X158750000Y-85852000D03*
X172212000Y-125730000D03*
X191008000Y-87376000D03*
X96266000Y-123698000D03*
X96266000Y-121158000D03*
X158750000Y-83312000D03*
X163068000Y-130810000D03*
X190754000Y-90932000D03*
X186436000Y-78486000D03*
X186436000Y-96012000D03*
X121920000Y-67818000D03*
X181610000Y-120650000D03*
X158496000Y-123190000D03*
X108712000Y-105664000D03*
X191008000Y-81026000D03*
X97790000Y-68072000D03*
X97790000Y-101092000D03*
X190754000Y-109982000D03*
X190754000Y-115062000D03*
X190754000Y-104902000D03*
X190754000Y-117602000D03*
X167640000Y-120650000D03*
X153924000Y-130810000D03*
X119888000Y-99822000D03*
X97790000Y-111252000D03*
X177038000Y-120650000D03*
X140462000Y-67818000D03*
X154432000Y-93472000D03*
X140716000Y-93726000D03*
X150114000Y-78232000D03*
X153924000Y-120650000D03*
X122682000Y-99822000D03*
X150368000Y-85852000D03*
X154432000Y-83312000D03*
X186182000Y-125730000D03*
X125730000Y-102362000D03*
X97790000Y-93472000D03*
X108712000Y-76200000D03*
X190754000Y-130810000D03*
X112014000Y-82296000D03*
X97790000Y-75692000D03*
X135890000Y-67818000D03*
X126492000Y-67818000D03*
X135890000Y-73406000D03*
X96266000Y-118618000D03*
X97790000Y-98552000D03*
X177038000Y-130810000D03*
X177038000Y-125730000D03*
X126492000Y-65278000D03*
X96266000Y-128778000D03*
X126492000Y-78232000D03*
X186436000Y-93472000D03*
X135890000Y-75692000D03*
X190754000Y-107442000D03*
X96266000Y-126238000D03*
X150368000Y-91186000D03*
X135890000Y-70358000D03*
X190754000Y-112522000D03*
X150622000Y-93472000D03*
X117348000Y-67818000D03*
X142494000Y-111506000D03*
X133096000Y-92710000D03*
X190754000Y-96012000D03*
X131318000Y-65278000D03*
X150368000Y-83566000D03*
X186436000Y-81026000D03*
X139192000Y-111506000D03*
X167640000Y-128270000D03*
X119888000Y-97282000D03*
X186182000Y-128270000D03*
X154432000Y-78232000D03*
X140462000Y-78232000D03*
X172212000Y-123190000D03*
X97790000Y-106172000D03*
X97790000Y-70612000D03*
X167640000Y-125730000D03*
X181610000Y-128270000D03*
X135890000Y-65278000D03*
X186182000Y-130810000D03*
X191008000Y-65786000D03*
X97790000Y-65532000D03*
X97790000Y-108712000D03*
X163068000Y-123190000D03*
X158496000Y-130810000D03*
X136398000Y-93726000D03*
X167640000Y-130810000D03*
X140716000Y-91186000D03*
X191008000Y-70866000D03*
X154432000Y-88392000D03*
X190754000Y-99822000D03*
X181610000Y-123190000D03*
X163068000Y-120650000D03*
X190754000Y-128270000D03*
X154432000Y-85852000D03*
X108712000Y-100584000D03*
X136398000Y-96266000D03*
X97790000Y-90932000D03*
X126492000Y-75692000D03*
X190754000Y-102362000D03*
X140462000Y-75692000D03*
X172212000Y-128270000D03*
X190754000Y-123190000D03*
X177038000Y-128270000D03*
X135890000Y-80772000D03*
X125730000Y-99822000D03*
X97790000Y-78232000D03*
X97790000Y-103632000D03*
X131318000Y-70358000D03*
X191008000Y-75946000D03*
X172212000Y-120650000D03*
X190754000Y-120650000D03*
X186436000Y-90932000D03*
X136398000Y-91186000D03*
X140462000Y-73152000D03*
X126492000Y-80772000D03*
X158496000Y-125730000D03*
X191008000Y-68326000D03*
X163068000Y-128270000D03*
X112014000Y-73660000D03*
X146050000Y-111506000D03*
X177038000Y-123190000D03*
X108712000Y-78740000D03*
X112014000Y-76200000D03*
X186182000Y-123190000D03*
X145034000Y-91186000D03*
X190754000Y-125730000D03*
X154432000Y-90932000D03*
X140462000Y-70358000D03*
X131318000Y-89916000D03*
X191008000Y-84328000D03*
X108712000Y-81280000D03*
X97790000Y-113792000D03*
X158496000Y-128270000D03*
X117348000Y-65278000D03*
X96266000Y-131318000D03*
X158750000Y-80772000D03*
X140462000Y-80772000D03*
X140716000Y-99060000D03*
X127000000Y-89916000D03*
X145034000Y-96266000D03*
X172212000Y-130810000D03*
X190754000Y-93472000D03*
X126492000Y-73152000D03*
X97790000Y-85852000D03*
X150368000Y-88392000D03*
X121920000Y-65278000D03*
X186182000Y-120650000D03*
X158750000Y-88392000D03*
X163068000Y-125730000D03*
X145034000Y-93726000D03*
X108712000Y-73660000D03*
X181610000Y-125730000D03*
X97790000Y-88392000D03*
X126492000Y-70358000D03*
X167640000Y-123190000D03*
X191008000Y-73406000D03*
X135890000Y-78232000D03*
X117348000Y-70358000D03*
X158750000Y-93472000D03*
X158750000Y-78232000D03*
X112014000Y-78740000D03*
X149352000Y-120650000D03*
X122682000Y-97282000D03*
X119888000Y-110998000D03*
X158496000Y-120650000D03*
X108712000Y-98044000D03*
X145034000Y-99060000D03*
X158750000Y-96012000D03*
X154432000Y-96012000D03*
X150368000Y-80772000D03*
X140716000Y-96266000D03*
X108712000Y-85598000D03*
X97790000Y-96012000D03*
%TD*%
%TA.AperFunction,Conductor*%
%TO.N,GND*%
G36*
X192772500Y-63303113D02*
G01*
X192817887Y-63348500D01*
X192834500Y-63410500D01*
X192834500Y-134027500D01*
X192817887Y-134089500D01*
X192772500Y-134134887D01*
X192710500Y-134151500D01*
X94915500Y-134151500D01*
X94853500Y-134134887D01*
X94808113Y-134089500D01*
X94791500Y-134027500D01*
X94791500Y-125818000D01*
X100556559Y-125818000D01*
X100576310Y-126194871D01*
X100576815Y-126198064D01*
X100576817Y-126198076D01*
X100634838Y-126564404D01*
X100634840Y-126564417D01*
X100635347Y-126567613D01*
X100636184Y-126570737D01*
X100636186Y-126570746D01*
X100706138Y-126831811D01*
X100733022Y-126932143D01*
X100734179Y-126935158D01*
X100734182Y-126935166D01*
X100867102Y-127281433D01*
X100868266Y-127284465D01*
X100869735Y-127287348D01*
X100869739Y-127287357D01*
X100981710Y-127507112D01*
X101039597Y-127620721D01*
X101245137Y-127937225D01*
X101247182Y-127939750D01*
X101449103Y-128189103D01*
X101482635Y-128230511D01*
X101749489Y-128497365D01*
X102042775Y-128734863D01*
X102359279Y-128940403D01*
X102695535Y-129111734D01*
X103047857Y-129246978D01*
X103412387Y-129344653D01*
X103785129Y-129403690D01*
X104162000Y-129423441D01*
X104538871Y-129403690D01*
X104911613Y-129344653D01*
X105276143Y-129246978D01*
X105628465Y-129111734D01*
X105964721Y-128940403D01*
X106281225Y-128734863D01*
X106574511Y-128497365D01*
X106841365Y-128230511D01*
X106874896Y-128189103D01*
X128081896Y-128189103D01*
X128090002Y-128200293D01*
X128098605Y-128206990D01*
X128107164Y-128212582D01*
X128298749Y-128316263D01*
X128308100Y-128320364D01*
X128514130Y-128391094D01*
X128524033Y-128393602D01*
X128738894Y-128429456D01*
X128749090Y-128430301D01*
X128966910Y-128430301D01*
X128977105Y-128429456D01*
X129191966Y-128393602D01*
X129201869Y-128391094D01*
X129407899Y-128320364D01*
X129417250Y-128316263D01*
X129608838Y-128212580D01*
X129617388Y-128206994D01*
X129626000Y-128200291D01*
X129634103Y-128189104D01*
X129627443Y-128176997D01*
X128869542Y-127419096D01*
X128857999Y-127412432D01*
X128846457Y-127419096D01*
X128088556Y-128176996D01*
X128081896Y-128189103D01*
X106874896Y-128189103D01*
X107078863Y-127937225D01*
X107284403Y-127620721D01*
X107455734Y-127284465D01*
X107542237Y-127059118D01*
X127477407Y-127059118D01*
X127495393Y-127276190D01*
X127497077Y-127286283D01*
X127550551Y-127497445D01*
X127553870Y-127507112D01*
X127641371Y-127706595D01*
X127646237Y-127715585D01*
X127716368Y-127822929D01*
X127724335Y-127830654D01*
X127733715Y-127824731D01*
X128492904Y-127065543D01*
X128499568Y-127054001D01*
X129216431Y-127054001D01*
X129223095Y-127065543D01*
X129982282Y-127824730D01*
X129991664Y-127830654D01*
X129999628Y-127822934D01*
X130069765Y-127715580D01*
X130074627Y-127706597D01*
X130162129Y-127507112D01*
X130165448Y-127497445D01*
X130218922Y-127286283D01*
X130220606Y-127276190D01*
X130238593Y-127059118D01*
X130238593Y-127048884D01*
X130220606Y-126831811D01*
X130218922Y-126821718D01*
X130165448Y-126610556D01*
X130162129Y-126600889D01*
X130074628Y-126401406D01*
X130069763Y-126392416D01*
X129999630Y-126285071D01*
X129991663Y-126277346D01*
X129982282Y-126283270D01*
X129223095Y-127042458D01*
X129216431Y-127054001D01*
X128499568Y-127054001D01*
X128492904Y-127042458D01*
X127733715Y-126283269D01*
X127724335Y-126277346D01*
X127716368Y-126285070D01*
X127646237Y-126392416D01*
X127641371Y-126401406D01*
X127553870Y-126600889D01*
X127550551Y-126610556D01*
X127497077Y-126821718D01*
X127495393Y-126831811D01*
X127477407Y-127048884D01*
X127477407Y-127059118D01*
X107542237Y-127059118D01*
X107590978Y-126932143D01*
X107688653Y-126567613D01*
X107747690Y-126194871D01*
X107762153Y-125918898D01*
X128081896Y-125918898D01*
X128088555Y-125931003D01*
X128846457Y-126688905D01*
X128858000Y-126695569D01*
X128869542Y-126688905D01*
X129627442Y-125931004D01*
X129634103Y-125918896D01*
X129625998Y-125907708D01*
X129617394Y-125901011D01*
X129608835Y-125895419D01*
X129465778Y-125818000D01*
X149556559Y-125818000D01*
X149576310Y-126194871D01*
X149576815Y-126198064D01*
X149576817Y-126198076D01*
X149634838Y-126564404D01*
X149634840Y-126564417D01*
X149635347Y-126567613D01*
X149636184Y-126570737D01*
X149636186Y-126570746D01*
X149706138Y-126831811D01*
X149733022Y-126932143D01*
X149734179Y-126935158D01*
X149734182Y-126935166D01*
X149867102Y-127281433D01*
X149868266Y-127284465D01*
X149869735Y-127287348D01*
X149869739Y-127287357D01*
X149981710Y-127507112D01*
X150039597Y-127620721D01*
X150245137Y-127937225D01*
X150247182Y-127939750D01*
X150449103Y-128189103D01*
X150482635Y-128230511D01*
X150749489Y-128497365D01*
X151042775Y-128734863D01*
X151359279Y-128940403D01*
X151695535Y-129111734D01*
X152047857Y-129246978D01*
X152412387Y-129344653D01*
X152785129Y-129403690D01*
X153162000Y-129423441D01*
X153538871Y-129403690D01*
X153911613Y-129344653D01*
X154276143Y-129246978D01*
X154628465Y-129111734D01*
X154964721Y-128940403D01*
X155281225Y-128734863D01*
X155574511Y-128497365D01*
X155841365Y-128230511D01*
X156078863Y-127937225D01*
X156284403Y-127620721D01*
X156455734Y-127284465D01*
X156590978Y-126932143D01*
X156688653Y-126567613D01*
X156747690Y-126194871D01*
X156767441Y-125818000D01*
X156747690Y-125441129D01*
X156688653Y-125068387D01*
X156590978Y-124703857D01*
X156455734Y-124351535D01*
X156284403Y-124015280D01*
X156078863Y-123698775D01*
X155841365Y-123405489D01*
X155574511Y-123138635D01*
X155281225Y-122901137D01*
X154964721Y-122695597D01*
X154961833Y-122694125D01*
X154961827Y-122694122D01*
X154631357Y-122525739D01*
X154631348Y-122525735D01*
X154628465Y-122524266D01*
X154625433Y-122523102D01*
X154279166Y-122390182D01*
X154279158Y-122390179D01*
X154276143Y-122389022D01*
X154273018Y-122388184D01*
X154273013Y-122388183D01*
X153914746Y-122292186D01*
X153914737Y-122292184D01*
X153911613Y-122291347D01*
X153908417Y-122290840D01*
X153908404Y-122290838D01*
X153542076Y-122232817D01*
X153542064Y-122232815D01*
X153538871Y-122232310D01*
X153535638Y-122232140D01*
X153535633Y-122232140D01*
X153165244Y-122212729D01*
X153162000Y-122212559D01*
X153158756Y-122212729D01*
X152788366Y-122232140D01*
X152788359Y-122232140D01*
X152785129Y-122232310D01*
X152781937Y-122232815D01*
X152781923Y-122232817D01*
X152415595Y-122290838D01*
X152415578Y-122290841D01*
X152412387Y-122291347D01*
X152409266Y-122292183D01*
X152409253Y-122292186D01*
X152050986Y-122388183D01*
X152050975Y-122388186D01*
X152047857Y-122389022D01*
X152044846Y-122390177D01*
X152044833Y-122390182D01*
X151698566Y-122523102D01*
X151698557Y-122523105D01*
X151695535Y-122524266D01*
X151692658Y-122525731D01*
X151692642Y-122525739D01*
X151362173Y-122694122D01*
X151362159Y-122694129D01*
X151359280Y-122695597D01*
X151356560Y-122697363D01*
X151356552Y-122697368D01*
X151045503Y-122899365D01*
X151045497Y-122899368D01*
X151042775Y-122901137D01*
X151040255Y-122903177D01*
X151040249Y-122903182D01*
X150752007Y-123136595D01*
X150751996Y-123136604D01*
X150749489Y-123138635D01*
X150747204Y-123140919D01*
X150747194Y-123140929D01*
X150484929Y-123403194D01*
X150484919Y-123403204D01*
X150482635Y-123405489D01*
X150480604Y-123407996D01*
X150480595Y-123408007D01*
X150247182Y-123696249D01*
X150247177Y-123696255D01*
X150245137Y-123698775D01*
X150243368Y-123701497D01*
X150243365Y-123701503D01*
X150041368Y-124012552D01*
X150041363Y-124012560D01*
X150039597Y-124015280D01*
X150038129Y-124018159D01*
X150038122Y-124018173D01*
X149869739Y-124348642D01*
X149869731Y-124348658D01*
X149868266Y-124351535D01*
X149867105Y-124354557D01*
X149867102Y-124354566D01*
X149734182Y-124700833D01*
X149734177Y-124700846D01*
X149733022Y-124703857D01*
X149732186Y-124706975D01*
X149732183Y-124706986D01*
X149636186Y-125065253D01*
X149636183Y-125065266D01*
X149635347Y-125068387D01*
X149634841Y-125071578D01*
X149634838Y-125071595D01*
X149576817Y-125437923D01*
X149576815Y-125437937D01*
X149576310Y-125441129D01*
X149576140Y-125444359D01*
X149576140Y-125444366D01*
X149561857Y-125716907D01*
X149556559Y-125818000D01*
X129465778Y-125818000D01*
X129417250Y-125791738D01*
X129407899Y-125787637D01*
X129201869Y-125716907D01*
X129191966Y-125714399D01*
X128977105Y-125678545D01*
X128966910Y-125677701D01*
X128749090Y-125677701D01*
X128738894Y-125678545D01*
X128524033Y-125714399D01*
X128514130Y-125716907D01*
X128308100Y-125787637D01*
X128298749Y-125791738D01*
X128107163Y-125895420D01*
X128098608Y-125901009D01*
X128090003Y-125907707D01*
X128081896Y-125918898D01*
X107762153Y-125918898D01*
X107767441Y-125818000D01*
X107747690Y-125441129D01*
X107688653Y-125068387D01*
X107590978Y-124703857D01*
X107455734Y-124351535D01*
X107284403Y-124015280D01*
X107078863Y-123698775D01*
X106841365Y-123405489D01*
X106574511Y-123138635D01*
X106281225Y-122901137D01*
X105964721Y-122695597D01*
X105961833Y-122694125D01*
X105961827Y-122694122D01*
X105631357Y-122525739D01*
X105631348Y-122525735D01*
X105628465Y-122524266D01*
X105625433Y-122523102D01*
X105435682Y-122450263D01*
X105381350Y-122409469D01*
X105356670Y-122346168D01*
X105369052Y-122279364D01*
X105414778Y-122229112D01*
X105480118Y-122210499D01*
X106241872Y-122210499D01*
X106301483Y-122204091D01*
X106436331Y-122153796D01*
X106551546Y-122067546D01*
X106637796Y-121952331D01*
X106688091Y-121817483D01*
X106694500Y-121757873D01*
X106694499Y-120138128D01*
X106688091Y-120078517D01*
X106637796Y-119943669D01*
X106551546Y-119828454D01*
X106500688Y-119790382D01*
X106443431Y-119747519D01*
X106443430Y-119747518D01*
X106436331Y-119742204D01*
X106365965Y-119715959D01*
X106308752Y-119694620D01*
X106308750Y-119694619D01*
X106301483Y-119691909D01*
X106293770Y-119691079D01*
X106293767Y-119691079D01*
X106245180Y-119685855D01*
X106245169Y-119685854D01*
X106241873Y-119685500D01*
X106238551Y-119685500D01*
X106201921Y-119685500D01*
X106141805Y-119669953D01*
X106096763Y-119627210D01*
X106078091Y-119567989D01*
X106090471Y-119507142D01*
X106130798Y-119459925D01*
X106246620Y-119378826D01*
X106402826Y-119222620D01*
X106529534Y-119041662D01*
X106622894Y-118841450D01*
X106680070Y-118628068D01*
X106699323Y-118408000D01*
X106680070Y-118187932D01*
X106622894Y-117974550D01*
X106529534Y-117774339D01*
X106402826Y-117593380D01*
X106246620Y-117437174D01*
X106218056Y-117417173D01*
X106070096Y-117313570D01*
X106070090Y-117313566D01*
X106065662Y-117310466D01*
X106060757Y-117308178D01*
X106060754Y-117308177D01*
X106002876Y-117281188D01*
X105936808Y-117250381D01*
X105884634Y-117204625D01*
X105865214Y-117138000D01*
X105884634Y-117071375D01*
X105936808Y-117025618D01*
X106065662Y-116965534D01*
X106246620Y-116838826D01*
X106402826Y-116682620D01*
X106529534Y-116501662D01*
X106622894Y-116301450D01*
X106680070Y-116088068D01*
X106699323Y-115868000D01*
X106680070Y-115647932D01*
X106622894Y-115434550D01*
X106614223Y-115415956D01*
X106531942Y-115239504D01*
X106529534Y-115234339D01*
X106402826Y-115053380D01*
X106246620Y-114897174D01*
X106144776Y-114825862D01*
X106070096Y-114773570D01*
X106070090Y-114773566D01*
X106065662Y-114770466D01*
X106060757Y-114768178D01*
X106060754Y-114768177D01*
X106002876Y-114741188D01*
X105936808Y-114710381D01*
X105884634Y-114664625D01*
X105865214Y-114598000D01*
X105878039Y-114554000D01*
X122476481Y-114554000D01*
X122495323Y-114781391D01*
X122496579Y-114786352D01*
X122496581Y-114786362D01*
X122550078Y-114997613D01*
X122550080Y-114997620D01*
X122551336Y-115002578D01*
X122553393Y-115007269D01*
X122553394Y-115007270D01*
X122640929Y-115206833D01*
X122640932Y-115206840D01*
X122642990Y-115211530D01*
X122645790Y-115215816D01*
X122645794Y-115215823D01*
X122661262Y-115239498D01*
X122767787Y-115402547D01*
X122922323Y-115570417D01*
X123102381Y-115710561D01*
X123303050Y-115819158D01*
X123518857Y-115893245D01*
X123743915Y-115930800D01*
X123966951Y-115930800D01*
X123972085Y-115930800D01*
X124197143Y-115893245D01*
X124412950Y-115819158D01*
X124613619Y-115710561D01*
X124793677Y-115570417D01*
X124948213Y-115402547D01*
X125073010Y-115211530D01*
X125164664Y-115002578D01*
X125220677Y-114781391D01*
X125239519Y-114554000D01*
X132476481Y-114554000D01*
X132495323Y-114781391D01*
X132496579Y-114786352D01*
X132496581Y-114786362D01*
X132550078Y-114997613D01*
X132550080Y-114997620D01*
X132551336Y-115002578D01*
X132553393Y-115007269D01*
X132553394Y-115007270D01*
X132640929Y-115206833D01*
X132640932Y-115206840D01*
X132642990Y-115211530D01*
X132645790Y-115215816D01*
X132645794Y-115215823D01*
X132661262Y-115239498D01*
X132767787Y-115402547D01*
X132922323Y-115570417D01*
X133102381Y-115710561D01*
X133303050Y-115819158D01*
X133518857Y-115893245D01*
X133743915Y-115930800D01*
X133966951Y-115930800D01*
X133972085Y-115930800D01*
X134197143Y-115893245D01*
X134412950Y-115819158D01*
X134613619Y-115710561D01*
X134793677Y-115570417D01*
X134948213Y-115402547D01*
X135073010Y-115211530D01*
X135164664Y-115002578D01*
X135220677Y-114781391D01*
X135239519Y-114554000D01*
X135220677Y-114326609D01*
X135164664Y-114105422D01*
X135073010Y-113896470D01*
X134948213Y-113705453D01*
X134793677Y-113537583D01*
X134613619Y-113397439D01*
X134559624Y-113368218D01*
X134417454Y-113291279D01*
X134417449Y-113291277D01*
X134412950Y-113288842D01*
X134408104Y-113287178D01*
X134408101Y-113287177D01*
X134201993Y-113216420D01*
X134201992Y-113216419D01*
X134197143Y-113214755D01*
X134187443Y-113213136D01*
X133977148Y-113178044D01*
X133977137Y-113178043D01*
X133972085Y-113177200D01*
X133743915Y-113177200D01*
X133738863Y-113178042D01*
X133738851Y-113178044D01*
X133523914Y-113213911D01*
X133523912Y-113213911D01*
X133518857Y-113214755D01*
X133514009Y-113216418D01*
X133514006Y-113216420D01*
X133307898Y-113287177D01*
X133307890Y-113287180D01*
X133303050Y-113288842D01*
X133298554Y-113291274D01*
X133298545Y-113291279D01*
X133106889Y-113394999D01*
X133106885Y-113395001D01*
X133102381Y-113397439D01*
X133098341Y-113400583D01*
X133098334Y-113400588D01*
X132926370Y-113534432D01*
X132926362Y-113534439D01*
X132922323Y-113537583D01*
X132918853Y-113541351D01*
X132918849Y-113541356D01*
X132771262Y-113701677D01*
X132771256Y-113701684D01*
X132767787Y-113705453D01*
X132764983Y-113709744D01*
X132764979Y-113709750D01*
X132645794Y-113892176D01*
X132645787Y-113892188D01*
X132642990Y-113896470D01*
X132640935Y-113901154D01*
X132640929Y-113901166D01*
X132553394Y-114100729D01*
X132553392Y-114100734D01*
X132551336Y-114105422D01*
X132550081Y-114110375D01*
X132550078Y-114110386D01*
X132496581Y-114321637D01*
X132496578Y-114321649D01*
X132495323Y-114326609D01*
X132476481Y-114554000D01*
X125239519Y-114554000D01*
X125220677Y-114326609D01*
X125164664Y-114105422D01*
X125073010Y-113896470D01*
X124948213Y-113705453D01*
X124793677Y-113537583D01*
X124613619Y-113397439D01*
X124559624Y-113368218D01*
X124417454Y-113291279D01*
X124417449Y-113291277D01*
X124412950Y-113288842D01*
X124408104Y-113287178D01*
X124408101Y-113287177D01*
X124201993Y-113216420D01*
X124201992Y-113216419D01*
X124197143Y-113214755D01*
X124187443Y-113213136D01*
X123977148Y-113178044D01*
X123977137Y-113178043D01*
X123972085Y-113177200D01*
X123743915Y-113177200D01*
X123738863Y-113178042D01*
X123738851Y-113178044D01*
X123523914Y-113213911D01*
X123523912Y-113213911D01*
X123518857Y-113214755D01*
X123514009Y-113216418D01*
X123514006Y-113216420D01*
X123307898Y-113287177D01*
X123307890Y-113287180D01*
X123303050Y-113288842D01*
X123298554Y-113291274D01*
X123298545Y-113291279D01*
X123106889Y-113394999D01*
X123106885Y-113395001D01*
X123102381Y-113397439D01*
X123098341Y-113400583D01*
X123098334Y-113400588D01*
X122926370Y-113534432D01*
X122926362Y-113534439D01*
X122922323Y-113537583D01*
X122918853Y-113541351D01*
X122918849Y-113541356D01*
X122771262Y-113701677D01*
X122771256Y-113701684D01*
X122767787Y-113705453D01*
X122764983Y-113709744D01*
X122764979Y-113709750D01*
X122645794Y-113892176D01*
X122645787Y-113892188D01*
X122642990Y-113896470D01*
X122640935Y-113901154D01*
X122640929Y-113901166D01*
X122553394Y-114100729D01*
X122553392Y-114100734D01*
X122551336Y-114105422D01*
X122550081Y-114110375D01*
X122550078Y-114110386D01*
X122496581Y-114321637D01*
X122496578Y-114321649D01*
X122495323Y-114326609D01*
X122476481Y-114554000D01*
X105878039Y-114554000D01*
X105884634Y-114531375D01*
X105936808Y-114485618D01*
X106065662Y-114425534D01*
X106246620Y-114298826D01*
X106402826Y-114142620D01*
X106529534Y-113961662D01*
X106622894Y-113761450D01*
X106680070Y-113548068D01*
X106699323Y-113328000D01*
X106680070Y-113107932D01*
X106622894Y-112894550D01*
X106529534Y-112694339D01*
X106402826Y-112513380D01*
X106246620Y-112357174D01*
X106218056Y-112337173D01*
X106070096Y-112233570D01*
X106070090Y-112233566D01*
X106065662Y-112230466D01*
X106060757Y-112228178D01*
X106060754Y-112228177D01*
X106002876Y-112201188D01*
X105936808Y-112170381D01*
X105884634Y-112124625D01*
X105865214Y-112058000D01*
X105884634Y-111991375D01*
X105936808Y-111945618D01*
X106065662Y-111885534D01*
X106246620Y-111758826D01*
X106402826Y-111602620D01*
X106529534Y-111421662D01*
X106622894Y-111221450D01*
X106680070Y-111008068D01*
X106699323Y-110788000D01*
X106680070Y-110567932D01*
X106622894Y-110354550D01*
X106586266Y-110276000D01*
X162358918Y-110276000D01*
X162359978Y-110284051D01*
X162359978Y-110284057D01*
X162364100Y-110315361D01*
X162378494Y-110424702D01*
X162378495Y-110424708D01*
X162379556Y-110432762D01*
X162440064Y-110578841D01*
X162536318Y-110704282D01*
X162661759Y-110800536D01*
X162807838Y-110861044D01*
X162964600Y-110881682D01*
X162972659Y-110880621D01*
X162981941Y-110880621D01*
X162990000Y-110881682D01*
X163146762Y-110861044D01*
X163292841Y-110800536D01*
X163418282Y-110704282D01*
X163514536Y-110578841D01*
X163575044Y-110432762D01*
X163590500Y-110315361D01*
X163595682Y-110276000D01*
X163594621Y-110267941D01*
X163594621Y-110258659D01*
X163595682Y-110250600D01*
X163575044Y-110093838D01*
X163514536Y-109947759D01*
X163418282Y-109822318D01*
X163292841Y-109726064D01*
X163285333Y-109722954D01*
X163154271Y-109668666D01*
X163154268Y-109668665D01*
X163146762Y-109665556D01*
X163138708Y-109664495D01*
X163138702Y-109664494D01*
X163029361Y-109650100D01*
X162998056Y-109645978D01*
X162998051Y-109645978D01*
X162990000Y-109644918D01*
X162981944Y-109645978D01*
X162972656Y-109645978D01*
X162964600Y-109644918D01*
X162956549Y-109645978D01*
X162956543Y-109645978D01*
X162925239Y-109650100D01*
X162815897Y-109664494D01*
X162815889Y-109664496D01*
X162807838Y-109665556D01*
X162800333Y-109668664D01*
X162800328Y-109668666D01*
X162669266Y-109722954D01*
X162669262Y-109722955D01*
X162661759Y-109726064D01*
X162655314Y-109731008D01*
X162655311Y-109731011D01*
X162542764Y-109817371D01*
X162542760Y-109817374D01*
X162536318Y-109822318D01*
X162531374Y-109828760D01*
X162531371Y-109828764D01*
X162445011Y-109941311D01*
X162445008Y-109941314D01*
X162440064Y-109947759D01*
X162436955Y-109955262D01*
X162436954Y-109955266D01*
X162382666Y-110086328D01*
X162382664Y-110086333D01*
X162379556Y-110093838D01*
X162378496Y-110101889D01*
X162378494Y-110101897D01*
X162359978Y-110242543D01*
X162359978Y-110242548D01*
X162358918Y-110250600D01*
X162359978Y-110258656D01*
X162359978Y-110267944D01*
X162358918Y-110276000D01*
X106586266Y-110276000D01*
X106529534Y-110154339D01*
X106402826Y-109973380D01*
X106246620Y-109817174D01*
X106218056Y-109797173D01*
X106070096Y-109693570D01*
X106070090Y-109693566D01*
X106065662Y-109690466D01*
X106060757Y-109688178D01*
X106060754Y-109688177D01*
X105971567Y-109646589D01*
X105936808Y-109630381D01*
X105884634Y-109584625D01*
X105865214Y-109518000D01*
X105884634Y-109451375D01*
X105936808Y-109405618D01*
X106065662Y-109345534D01*
X106246620Y-109218826D01*
X106402826Y-109062620D01*
X106529534Y-108881662D01*
X106622894Y-108681450D01*
X106680070Y-108468068D01*
X106699323Y-108248000D01*
X106680070Y-108027932D01*
X106674702Y-108007900D01*
X106655129Y-107934853D01*
X106622894Y-107814550D01*
X106529534Y-107614339D01*
X106402826Y-107433380D01*
X106246620Y-107277174D01*
X106193904Y-107240262D01*
X106070096Y-107153570D01*
X106070090Y-107153566D01*
X106065662Y-107150466D01*
X106060757Y-107148178D01*
X106060754Y-107148177D01*
X106002876Y-107121188D01*
X105936808Y-107090381D01*
X105884634Y-107044625D01*
X105865214Y-106978000D01*
X105884634Y-106911375D01*
X105936808Y-106865618D01*
X106065662Y-106805534D01*
X106187817Y-106720000D01*
X111559180Y-106720000D01*
X111559652Y-106725395D01*
X111578348Y-106939096D01*
X111578349Y-106939102D01*
X111578821Y-106944496D01*
X111580220Y-106949717D01*
X111580222Y-106949728D01*
X111635747Y-107156948D01*
X111635749Y-107156955D01*
X111637147Y-107162170D01*
X111639431Y-107167070D01*
X111639433Y-107167073D01*
X111689325Y-107274068D01*
X111732385Y-107366410D01*
X111735485Y-107370838D01*
X111735489Y-107370844D01*
X111842470Y-107523629D01*
X111861642Y-107551009D01*
X112020991Y-107710358D01*
X112065351Y-107741419D01*
X112201155Y-107836510D01*
X112201158Y-107836511D01*
X112205590Y-107839615D01*
X112409830Y-107934853D01*
X112415050Y-107936251D01*
X112415051Y-107936252D01*
X112622271Y-107991777D01*
X112622273Y-107991777D01*
X112627504Y-107993179D01*
X112852000Y-108012820D01*
X113076496Y-107993179D01*
X113294170Y-107934853D01*
X113498410Y-107839615D01*
X113683009Y-107710358D01*
X113841389Y-107551978D01*
X129064700Y-107551978D01*
X129064701Y-107555272D01*
X129065053Y-107558550D01*
X129065054Y-107558561D01*
X129070279Y-107607168D01*
X129070280Y-107607173D01*
X129071109Y-107614883D01*
X129073819Y-107622149D01*
X129073820Y-107622153D01*
X129084793Y-107651573D01*
X129121404Y-107749731D01*
X129126718Y-107756830D01*
X129126719Y-107756831D01*
X129169927Y-107814550D01*
X129207654Y-107864946D01*
X129322869Y-107951196D01*
X129457717Y-108001491D01*
X129517327Y-108007900D01*
X131187872Y-108007899D01*
X131247483Y-108001491D01*
X131382331Y-107951196D01*
X131497546Y-107864946D01*
X131513168Y-107844078D01*
X133076750Y-107844078D01*
X133076751Y-107847372D01*
X133077103Y-107850650D01*
X133077104Y-107850661D01*
X133082329Y-107899268D01*
X133082330Y-107899273D01*
X133083159Y-107906983D01*
X133085869Y-107914249D01*
X133085870Y-107914253D01*
X133118408Y-108001491D01*
X133133454Y-108041831D01*
X133219704Y-108157046D01*
X133334919Y-108243296D01*
X133469767Y-108293591D01*
X133529377Y-108300000D01*
X135784122Y-108299999D01*
X135843733Y-108293591D01*
X135978581Y-108243296D01*
X136093796Y-108157046D01*
X136180046Y-108041831D01*
X136230341Y-107906983D01*
X136236750Y-107847373D01*
X136236749Y-106720000D01*
X153137864Y-106720000D01*
X153157377Y-106967931D01*
X153158512Y-106972660D01*
X153158513Y-106972664D01*
X153214296Y-107205020D01*
X153214298Y-107205028D01*
X153215434Y-107209757D01*
X153310606Y-107439523D01*
X153313153Y-107443680D01*
X153313154Y-107443681D01*
X153438003Y-107647418D01*
X153438008Y-107647425D01*
X153440550Y-107651573D01*
X153443710Y-107655272D01*
X153443713Y-107655277D01*
X153518797Y-107743189D01*
X153602066Y-107840684D01*
X153605766Y-107843844D01*
X153787171Y-107998779D01*
X153791177Y-108002200D01*
X153795327Y-108004743D01*
X153795331Y-108004746D01*
X153842285Y-108033519D01*
X154003227Y-108132144D01*
X154232993Y-108227316D01*
X154474819Y-108285373D01*
X154722750Y-108304886D01*
X154970681Y-108285373D01*
X155212507Y-108227316D01*
X155442273Y-108132144D01*
X155654323Y-108002200D01*
X155843434Y-107840684D01*
X156004950Y-107651573D01*
X156021722Y-107624204D01*
X162940571Y-107624204D01*
X162950022Y-107630765D01*
X162951958Y-107631488D01*
X162966932Y-107635026D01*
X163015485Y-107640246D01*
X163022082Y-107640600D01*
X166111118Y-107640600D01*
X166117714Y-107640246D01*
X166166262Y-107635027D01*
X166181247Y-107631485D01*
X166183177Y-107630765D01*
X166192627Y-107624204D01*
X166186757Y-107614310D01*
X164578142Y-106005695D01*
X164566600Y-105999031D01*
X164555057Y-106005695D01*
X162946441Y-107614310D01*
X162940571Y-107624204D01*
X156021722Y-107624204D01*
X156134894Y-107439523D01*
X156230066Y-107209757D01*
X156235981Y-107185118D01*
X162566600Y-107185118D01*
X162566953Y-107191714D01*
X162572172Y-107240264D01*
X162575712Y-107255244D01*
X162576433Y-107257176D01*
X162582994Y-107266627D01*
X162592890Y-107260755D01*
X164201504Y-105652142D01*
X164208168Y-105640600D01*
X164925031Y-105640600D01*
X164931695Y-105652142D01*
X166540310Y-107260757D01*
X166550204Y-107266627D01*
X166556765Y-107257177D01*
X166557485Y-107255247D01*
X166561027Y-107240262D01*
X166566246Y-107191714D01*
X166566597Y-107185178D01*
X180600100Y-107185178D01*
X180600101Y-107188472D01*
X180600453Y-107191750D01*
X180600454Y-107191761D01*
X180605679Y-107240368D01*
X180605680Y-107240373D01*
X180606509Y-107248083D01*
X180609219Y-107255349D01*
X180609220Y-107255353D01*
X180617359Y-107277174D01*
X180656804Y-107382931D01*
X180743054Y-107498146D01*
X180858269Y-107584396D01*
X180993117Y-107634691D01*
X181052727Y-107641100D01*
X184148472Y-107641099D01*
X184208083Y-107634691D01*
X184342931Y-107584396D01*
X184458146Y-107498146D01*
X184544396Y-107382931D01*
X184594691Y-107248083D01*
X184601100Y-107188473D01*
X184601099Y-104092728D01*
X184594691Y-104033117D01*
X184544396Y-103898269D01*
X184458146Y-103783054D01*
X184342931Y-103696804D01*
X184208083Y-103646509D01*
X184200370Y-103645679D01*
X184200367Y-103645679D01*
X184151780Y-103640455D01*
X184151769Y-103640454D01*
X184148473Y-103640100D01*
X184145150Y-103640100D01*
X181056039Y-103640100D01*
X181056020Y-103640100D01*
X181052728Y-103640101D01*
X181049450Y-103640453D01*
X181049438Y-103640454D01*
X181000831Y-103645679D01*
X181000825Y-103645680D01*
X180993117Y-103646509D01*
X180985852Y-103649218D01*
X180985846Y-103649220D01*
X180866580Y-103693704D01*
X180866578Y-103693704D01*
X180858269Y-103696804D01*
X180851172Y-103702116D01*
X180851168Y-103702119D01*
X180750150Y-103777741D01*
X180750146Y-103777744D01*
X180743054Y-103783054D01*
X180737744Y-103790146D01*
X180737741Y-103790150D01*
X180662119Y-103891168D01*
X180662116Y-103891172D01*
X180656804Y-103898269D01*
X180653704Y-103906578D01*
X180653704Y-103906580D01*
X180609220Y-104025847D01*
X180609219Y-104025850D01*
X180606509Y-104033117D01*
X180605679Y-104040827D01*
X180605679Y-104040832D01*
X180600455Y-104089419D01*
X180600454Y-104089431D01*
X180600100Y-104092727D01*
X180600100Y-104096048D01*
X180600100Y-104096049D01*
X180600100Y-107185160D01*
X180600100Y-107185178D01*
X166566597Y-107185178D01*
X166566600Y-107185118D01*
X166566600Y-104096082D01*
X166566246Y-104089485D01*
X166561026Y-104040932D01*
X166557488Y-104025958D01*
X166556765Y-104024022D01*
X166550204Y-104014571D01*
X166540310Y-104020441D01*
X164931695Y-105629057D01*
X164925031Y-105640600D01*
X164208168Y-105640600D01*
X164201504Y-105629057D01*
X162592890Y-104020443D01*
X162582994Y-104014572D01*
X162576433Y-104024023D01*
X162575712Y-104025956D01*
X162572173Y-104040932D01*
X162566953Y-104089485D01*
X162566600Y-104096082D01*
X162566600Y-107185118D01*
X156235981Y-107185118D01*
X156288123Y-106967931D01*
X156307636Y-106720000D01*
X156288123Y-106472069D01*
X156230066Y-106230243D01*
X156134894Y-106000477D01*
X156065992Y-105888039D01*
X156007496Y-105792581D01*
X156007493Y-105792577D01*
X156004950Y-105788427D01*
X155928213Y-105698580D01*
X155846594Y-105603016D01*
X155843434Y-105599316D01*
X155735853Y-105507433D01*
X155658027Y-105440963D01*
X155658022Y-105440960D01*
X155654323Y-105437800D01*
X155650175Y-105435258D01*
X155650168Y-105435253D01*
X155446431Y-105310404D01*
X155446430Y-105310403D01*
X155442273Y-105307856D01*
X155212507Y-105212684D01*
X155207778Y-105211548D01*
X155207770Y-105211546D01*
X154975414Y-105155763D01*
X154975410Y-105155762D01*
X154970681Y-105154627D01*
X154965828Y-105154245D01*
X154727604Y-105135496D01*
X154722750Y-105135114D01*
X154717896Y-105135496D01*
X154479671Y-105154245D01*
X154479669Y-105154245D01*
X154474819Y-105154627D01*
X154470091Y-105155761D01*
X154470085Y-105155763D01*
X154237729Y-105211546D01*
X154237717Y-105211549D01*
X154232993Y-105212684D01*
X154228496Y-105214546D01*
X154228492Y-105214548D01*
X154007731Y-105305990D01*
X154007726Y-105305992D01*
X154003227Y-105307856D01*
X153999074Y-105310400D01*
X153999068Y-105310404D01*
X153795331Y-105435253D01*
X153795318Y-105435262D01*
X153791177Y-105437800D01*
X153787482Y-105440955D01*
X153787472Y-105440963D01*
X153605766Y-105596155D01*
X153605759Y-105596161D01*
X153602066Y-105599316D01*
X153598911Y-105603009D01*
X153598905Y-105603016D01*
X153443713Y-105784722D01*
X153443705Y-105784732D01*
X153440550Y-105788427D01*
X153438012Y-105792568D01*
X153438003Y-105792581D01*
X153313154Y-105996318D01*
X153313150Y-105996324D01*
X153310606Y-106000477D01*
X153308742Y-106004976D01*
X153308740Y-106004981D01*
X153244267Y-106160634D01*
X153215434Y-106230243D01*
X153214299Y-106234967D01*
X153214296Y-106234979D01*
X153158513Y-106467335D01*
X153158511Y-106467341D01*
X153157377Y-106472069D01*
X153156995Y-106476919D01*
X153156995Y-106476921D01*
X153140860Y-106681931D01*
X153137864Y-106720000D01*
X136236749Y-106720000D01*
X136236749Y-105592628D01*
X136230341Y-105533017D01*
X136180046Y-105398169D01*
X136093796Y-105282954D01*
X136082882Y-105274784D01*
X135985681Y-105202019D01*
X135985680Y-105202018D01*
X135978581Y-105196704D01*
X135908215Y-105170459D01*
X135851002Y-105149120D01*
X135851000Y-105149119D01*
X135843733Y-105146409D01*
X135836020Y-105145579D01*
X135836017Y-105145579D01*
X135787430Y-105140355D01*
X135787419Y-105140354D01*
X135784123Y-105140000D01*
X135780800Y-105140000D01*
X133532689Y-105140000D01*
X133532670Y-105140000D01*
X133529378Y-105140001D01*
X133526100Y-105140353D01*
X133526088Y-105140354D01*
X133477481Y-105145579D01*
X133477475Y-105145580D01*
X133469767Y-105146409D01*
X133462502Y-105149118D01*
X133462496Y-105149120D01*
X133343230Y-105193604D01*
X133343228Y-105193604D01*
X133334919Y-105196704D01*
X133327822Y-105202016D01*
X133327818Y-105202019D01*
X133226800Y-105277641D01*
X133226796Y-105277644D01*
X133219704Y-105282954D01*
X133214394Y-105290046D01*
X133214391Y-105290050D01*
X133138769Y-105391068D01*
X133138766Y-105391072D01*
X133133454Y-105398169D01*
X133130354Y-105406478D01*
X133130354Y-105406480D01*
X133085870Y-105525747D01*
X133085869Y-105525750D01*
X133083159Y-105533017D01*
X133082329Y-105540727D01*
X133082329Y-105540732D01*
X133077105Y-105589319D01*
X133077104Y-105589331D01*
X133076750Y-105592627D01*
X133076750Y-105595948D01*
X133076750Y-105595949D01*
X133076750Y-107844060D01*
X133076750Y-107844078D01*
X131513168Y-107844078D01*
X131583796Y-107749731D01*
X131634091Y-107614883D01*
X131640500Y-107555273D01*
X131640499Y-105884728D01*
X131634091Y-105825117D01*
X131583796Y-105690269D01*
X131497546Y-105575054D01*
X131451696Y-105540731D01*
X131389431Y-105494119D01*
X131389430Y-105494118D01*
X131382331Y-105488804D01*
X131269769Y-105446821D01*
X131254752Y-105441220D01*
X131254750Y-105441219D01*
X131247483Y-105438509D01*
X131239770Y-105437679D01*
X131239767Y-105437679D01*
X131191180Y-105432455D01*
X131191169Y-105432454D01*
X131187873Y-105432100D01*
X131184550Y-105432100D01*
X129520639Y-105432100D01*
X129520620Y-105432100D01*
X129517328Y-105432101D01*
X129514050Y-105432453D01*
X129514038Y-105432454D01*
X129465431Y-105437679D01*
X129465425Y-105437680D01*
X129457717Y-105438509D01*
X129450452Y-105441218D01*
X129450446Y-105441220D01*
X129331180Y-105485704D01*
X129331178Y-105485704D01*
X129322869Y-105488804D01*
X129315772Y-105494116D01*
X129315768Y-105494119D01*
X129214750Y-105569741D01*
X129214746Y-105569744D01*
X129207654Y-105575054D01*
X129202344Y-105582146D01*
X129202341Y-105582150D01*
X129126719Y-105683168D01*
X129126716Y-105683172D01*
X129121404Y-105690269D01*
X129118304Y-105698578D01*
X129118304Y-105698580D01*
X129073820Y-105817847D01*
X129073819Y-105817850D01*
X129071109Y-105825117D01*
X129070279Y-105832827D01*
X129070279Y-105832832D01*
X129065055Y-105881419D01*
X129065054Y-105881431D01*
X129064700Y-105884727D01*
X129064700Y-105888048D01*
X129064700Y-105888049D01*
X129064700Y-107551960D01*
X129064700Y-107551978D01*
X113841389Y-107551978D01*
X113842358Y-107551009D01*
X113971615Y-107366410D01*
X114066853Y-107162170D01*
X114125179Y-106944496D01*
X114144820Y-106720000D01*
X114125179Y-106495504D01*
X114066853Y-106277830D01*
X113971615Y-106073590D01*
X113919408Y-105999031D01*
X113845463Y-105893426D01*
X113842358Y-105888991D01*
X113683009Y-105729642D01*
X113616637Y-105683168D01*
X113502844Y-105603489D01*
X113502838Y-105603485D01*
X113498410Y-105600385D01*
X113493505Y-105598097D01*
X113493502Y-105598096D01*
X113299073Y-105507433D01*
X113299070Y-105507431D01*
X113294170Y-105505147D01*
X113288955Y-105503749D01*
X113288948Y-105503747D01*
X113081728Y-105448222D01*
X113081717Y-105448220D01*
X113076496Y-105446821D01*
X113071102Y-105446349D01*
X113071096Y-105446348D01*
X112857395Y-105427652D01*
X112852000Y-105427180D01*
X112846605Y-105427652D01*
X112632903Y-105446348D01*
X112632895Y-105446349D01*
X112627504Y-105446821D01*
X112622283Y-105448219D01*
X112622271Y-105448222D01*
X112415051Y-105503747D01*
X112415040Y-105503750D01*
X112409830Y-105505147D01*
X112404933Y-105507430D01*
X112404926Y-105507433D01*
X112210497Y-105598096D01*
X112210489Y-105598100D01*
X112205590Y-105600385D01*
X112201166Y-105603482D01*
X112201155Y-105603489D01*
X112025426Y-105726536D01*
X112025421Y-105726539D01*
X112020991Y-105729642D01*
X112017167Y-105733465D01*
X112017161Y-105733471D01*
X111865471Y-105885161D01*
X111865465Y-105885167D01*
X111861642Y-105888991D01*
X111858539Y-105893421D01*
X111858536Y-105893426D01*
X111735489Y-106069155D01*
X111735482Y-106069166D01*
X111732385Y-106073590D01*
X111730100Y-106078489D01*
X111730096Y-106078497D01*
X111639433Y-106272926D01*
X111639430Y-106272933D01*
X111637147Y-106277830D01*
X111635750Y-106283040D01*
X111635747Y-106283051D01*
X111580222Y-106490271D01*
X111580219Y-106490283D01*
X111578821Y-106495504D01*
X111578349Y-106500895D01*
X111578348Y-106500903D01*
X111563117Y-106674996D01*
X111559180Y-106720000D01*
X106187817Y-106720000D01*
X106246620Y-106678826D01*
X106402826Y-106522620D01*
X106529534Y-106341662D01*
X106622894Y-106141450D01*
X106680070Y-105928068D01*
X106699323Y-105708000D01*
X106680070Y-105487932D01*
X106622894Y-105274550D01*
X106529534Y-105074339D01*
X106402826Y-104893380D01*
X106246620Y-104737174D01*
X106218056Y-104717173D01*
X106070096Y-104613570D01*
X106070090Y-104613566D01*
X106065662Y-104610466D01*
X106060757Y-104608178D01*
X106060754Y-104608177D01*
X106002876Y-104581188D01*
X105936808Y-104550381D01*
X105884634Y-104504625D01*
X105865214Y-104438000D01*
X105884634Y-104371375D01*
X105936808Y-104325618D01*
X106065662Y-104265534D01*
X106246620Y-104138826D01*
X106402826Y-103982620D01*
X106529534Y-103801662D01*
X106596994Y-103656994D01*
X162940572Y-103656994D01*
X162946443Y-103666890D01*
X164555057Y-105275504D01*
X164566600Y-105282168D01*
X164578142Y-105275504D01*
X166186755Y-103666890D01*
X166192627Y-103656994D01*
X166183176Y-103650433D01*
X166181244Y-103649712D01*
X166166264Y-103646172D01*
X166117714Y-103640953D01*
X166111118Y-103640600D01*
X163022082Y-103640600D01*
X163015485Y-103640953D01*
X162966932Y-103646173D01*
X162951956Y-103649712D01*
X162950023Y-103650433D01*
X162940572Y-103656994D01*
X106596994Y-103656994D01*
X106622894Y-103601450D01*
X106680070Y-103388068D01*
X106699323Y-103168000D01*
X106680070Y-102947932D01*
X106622894Y-102734550D01*
X106529534Y-102534339D01*
X106402826Y-102353380D01*
X106246620Y-102197174D01*
X106218056Y-102177173D01*
X106070096Y-102073570D01*
X106070090Y-102073566D01*
X106065662Y-102070466D01*
X106060760Y-102068180D01*
X106060758Y-102068179D01*
X105936809Y-102010381D01*
X105884633Y-101964624D01*
X105865214Y-101897998D01*
X105884634Y-101831373D01*
X105936806Y-101785620D01*
X106065662Y-101725534D01*
X106246620Y-101598826D01*
X106402826Y-101442620D01*
X106529534Y-101261662D01*
X106622894Y-101061450D01*
X106680070Y-100848068D01*
X106699323Y-100628000D01*
X106680070Y-100407932D01*
X106622894Y-100194550D01*
X106529534Y-99994339D01*
X106402826Y-99813380D01*
X106246620Y-99657174D01*
X106218056Y-99637173D01*
X106070096Y-99533570D01*
X106070090Y-99533566D01*
X106065662Y-99530466D01*
X106060757Y-99528178D01*
X106060754Y-99528177D01*
X106002876Y-99501188D01*
X105936808Y-99470381D01*
X105884634Y-99424625D01*
X105865214Y-99358000D01*
X105884634Y-99291375D01*
X105936808Y-99245618D01*
X106065662Y-99185534D01*
X106246620Y-99058826D01*
X106402826Y-98902620D01*
X106529534Y-98721662D01*
X106622894Y-98521450D01*
X106680070Y-98308068D01*
X106699323Y-98088000D01*
X106680070Y-97867932D01*
X106622894Y-97654550D01*
X106529534Y-97454339D01*
X106402826Y-97273380D01*
X106246620Y-97117174D01*
X106218056Y-97097173D01*
X106070096Y-96993570D01*
X106070090Y-96993566D01*
X106065662Y-96990466D01*
X106060757Y-96988178D01*
X106060754Y-96988177D01*
X106002876Y-96961188D01*
X105936808Y-96930381D01*
X105884634Y-96884625D01*
X105865214Y-96818000D01*
X105884634Y-96751375D01*
X105936808Y-96705618D01*
X106065662Y-96645534D01*
X106246620Y-96518826D01*
X106402826Y-96362620D01*
X106529534Y-96181662D01*
X106622894Y-95981450D01*
X106680070Y-95768068D01*
X106699323Y-95548000D01*
X106680070Y-95327932D01*
X106622894Y-95114550D01*
X106529534Y-94914339D01*
X106402826Y-94733380D01*
X106246620Y-94577174D01*
X106218056Y-94557173D01*
X106070096Y-94453570D01*
X106070090Y-94453566D01*
X106065662Y-94450466D01*
X106060760Y-94448180D01*
X106060758Y-94448179D01*
X105936809Y-94390381D01*
X105884633Y-94344624D01*
X105865214Y-94277998D01*
X105884634Y-94211373D01*
X105936806Y-94165620D01*
X106065662Y-94105534D01*
X106246620Y-93978826D01*
X106402826Y-93822620D01*
X106529534Y-93641662D01*
X106622894Y-93441450D01*
X106680070Y-93228068D01*
X106699323Y-93008000D01*
X106680070Y-92787932D01*
X106622894Y-92574550D01*
X106586266Y-92496000D01*
X114059532Y-92496000D01*
X114060004Y-92501395D01*
X114066861Y-92579777D01*
X114079365Y-92722692D01*
X114080762Y-92727907D01*
X114080764Y-92727916D01*
X114136858Y-92937263D01*
X114136861Y-92937271D01*
X114138261Y-92942496D01*
X114234432Y-93148734D01*
X114364953Y-93335139D01*
X114525861Y-93496047D01*
X114712266Y-93626568D01*
X114918504Y-93722739D01*
X114923734Y-93724140D01*
X114923736Y-93724141D01*
X115133083Y-93780235D01*
X115138308Y-93781635D01*
X115365000Y-93801468D01*
X115591692Y-93781635D01*
X115811496Y-93722739D01*
X116017734Y-93626568D01*
X116204139Y-93496047D01*
X116365047Y-93335139D01*
X116495568Y-93148734D01*
X116591739Y-92942496D01*
X116650635Y-92722692D01*
X116670468Y-92496000D01*
X116650635Y-92269308D01*
X116591739Y-92049504D01*
X116495568Y-91843266D01*
X116365047Y-91656861D01*
X116204139Y-91495953D01*
X116017734Y-91365432D01*
X115959724Y-91338381D01*
X115907549Y-91292625D01*
X115888130Y-91226000D01*
X115907549Y-91159375D01*
X115959725Y-91113618D01*
X116017734Y-91086568D01*
X116204139Y-90956047D01*
X116365047Y-90795139D01*
X116495568Y-90608734D01*
X116591739Y-90402496D01*
X116650635Y-90182692D01*
X116670468Y-89956000D01*
X121679532Y-89956000D01*
X121680004Y-89961395D01*
X121686861Y-90039777D01*
X121699365Y-90182692D01*
X121700762Y-90187907D01*
X121700764Y-90187916D01*
X121756858Y-90397263D01*
X121756861Y-90397271D01*
X121758261Y-90402496D01*
X121854432Y-90608734D01*
X121984953Y-90795139D01*
X122145861Y-90956047D01*
X122170463Y-90973273D01*
X122209600Y-91018114D01*
X122223334Y-91076028D01*
X122208501Y-91133669D01*
X122168517Y-91177758D01*
X122112595Y-91198138D01*
X122085230Y-91201079D01*
X122085223Y-91201080D01*
X122077517Y-91201909D01*
X122070252Y-91204618D01*
X122070246Y-91204620D01*
X121950980Y-91249104D01*
X121950978Y-91249104D01*
X121942669Y-91252204D01*
X121935572Y-91257516D01*
X121935568Y-91257519D01*
X121834550Y-91333141D01*
X121834546Y-91333144D01*
X121827454Y-91338454D01*
X121822144Y-91345546D01*
X121822141Y-91345550D01*
X121746519Y-91446568D01*
X121746516Y-91446572D01*
X121741204Y-91453669D01*
X121738104Y-91461978D01*
X121738104Y-91461980D01*
X121693620Y-91581247D01*
X121693619Y-91581250D01*
X121690909Y-91588517D01*
X121690079Y-91596227D01*
X121690079Y-91596232D01*
X121684855Y-91644819D01*
X121684854Y-91644831D01*
X121684500Y-91648127D01*
X121684500Y-91651448D01*
X121684500Y-91651449D01*
X121684500Y-93340560D01*
X121684500Y-93340578D01*
X121684501Y-93343872D01*
X121684853Y-93347150D01*
X121684854Y-93347161D01*
X121690079Y-93395768D01*
X121690080Y-93395773D01*
X121690909Y-93403483D01*
X121693619Y-93410749D01*
X121693620Y-93410753D01*
X121706898Y-93446352D01*
X121741204Y-93538331D01*
X121746518Y-93545430D01*
X121746519Y-93545431D01*
X121818557Y-93641662D01*
X121827454Y-93653546D01*
X121942669Y-93739796D01*
X122077517Y-93790091D01*
X122137127Y-93796500D01*
X123832872Y-93796499D01*
X123892483Y-93790091D01*
X124027331Y-93739796D01*
X124142546Y-93653546D01*
X124228796Y-93538331D01*
X124279091Y-93403483D01*
X124285500Y-93343873D01*
X124285499Y-91648128D01*
X124279091Y-91588517D01*
X124228796Y-91453669D01*
X124142546Y-91338454D01*
X124081326Y-91292625D01*
X124034431Y-91257519D01*
X124034430Y-91257518D01*
X124027331Y-91252204D01*
X123892483Y-91201909D01*
X123884770Y-91201079D01*
X123884767Y-91201079D01*
X123857402Y-91198137D01*
X123801480Y-91177757D01*
X123761497Y-91133667D01*
X123746665Y-91076025D01*
X123760400Y-91018112D01*
X123799536Y-90973273D01*
X123824139Y-90956047D01*
X123985047Y-90795139D01*
X124115568Y-90608734D01*
X124211739Y-90402496D01*
X124270635Y-90182692D01*
X124290468Y-89956000D01*
X124270635Y-89729308D01*
X124211739Y-89509504D01*
X124115568Y-89303266D01*
X123985047Y-89116861D01*
X123824139Y-88955953D01*
X123637734Y-88825432D01*
X123579724Y-88798381D01*
X123527549Y-88752625D01*
X123508130Y-88686000D01*
X123527549Y-88619375D01*
X123579725Y-88573618D01*
X123580319Y-88573341D01*
X123637734Y-88546568D01*
X123824139Y-88416047D01*
X123985047Y-88255139D01*
X124115568Y-88068734D01*
X124211739Y-87862496D01*
X124270635Y-87642692D01*
X124290468Y-87416000D01*
X124270635Y-87189308D01*
X124211739Y-86969504D01*
X124115568Y-86763266D01*
X123985047Y-86576861D01*
X123824139Y-86415953D01*
X123637734Y-86285432D01*
X123579724Y-86258381D01*
X123527549Y-86212625D01*
X123508130Y-86146000D01*
X123527549Y-86079375D01*
X123579725Y-86033618D01*
X123637734Y-86006568D01*
X123824139Y-85876047D01*
X123985047Y-85715139D01*
X124115568Y-85528734D01*
X124127591Y-85502950D01*
X130088923Y-85502950D01*
X130089395Y-85508345D01*
X130107122Y-85710978D01*
X130107123Y-85710985D01*
X130107595Y-85716377D01*
X130163045Y-85923319D01*
X130165329Y-85928218D01*
X130165332Y-85928225D01*
X130251301Y-86112586D01*
X130251304Y-86112592D01*
X130253588Y-86117489D01*
X130256687Y-86121916D01*
X130256689Y-86121918D01*
X130373366Y-86288550D01*
X130373369Y-86288554D01*
X130376472Y-86292985D01*
X130527965Y-86444478D01*
X130703461Y-86567362D01*
X130708361Y-86569647D01*
X130708363Y-86569648D01*
X130850805Y-86636070D01*
X130897631Y-86657905D01*
X131104573Y-86713355D01*
X131318000Y-86732027D01*
X131531427Y-86713355D01*
X131738369Y-86657905D01*
X131932539Y-86567362D01*
X132108035Y-86444478D01*
X132259528Y-86292985D01*
X132382412Y-86117489D01*
X132472955Y-85923319D01*
X132528405Y-85716377D01*
X132547077Y-85502950D01*
X132528405Y-85289523D01*
X132472955Y-85082581D01*
X132382412Y-84888412D01*
X132259528Y-84712915D01*
X132128613Y-84582000D01*
X143588618Y-84582000D01*
X143589147Y-84587709D01*
X143595354Y-84654698D01*
X143608904Y-84800916D01*
X143610468Y-84806414D01*
X143610470Y-84806423D01*
X143654103Y-84959777D01*
X143669069Y-85012377D01*
X143671622Y-85017504D01*
X143764512Y-85204052D01*
X143764514Y-85204056D01*
X143767067Y-85209182D01*
X143899558Y-85384629D01*
X143903798Y-85388494D01*
X144057796Y-85528882D01*
X144057799Y-85528884D01*
X144062032Y-85532743D01*
X144248955Y-85648481D01*
X144453963Y-85727902D01*
X144670073Y-85768300D01*
X144884198Y-85768300D01*
X144889927Y-85768300D01*
X145106037Y-85727902D01*
X145311045Y-85648481D01*
X145497968Y-85532743D01*
X145660442Y-85384629D01*
X145792933Y-85209182D01*
X145890931Y-85012377D01*
X145951096Y-84800916D01*
X145971382Y-84582000D01*
X145951096Y-84363084D01*
X145890931Y-84151623D01*
X145792933Y-83954818D01*
X145660442Y-83779371D01*
X145517718Y-83649261D01*
X145502203Y-83635117D01*
X145502198Y-83635113D01*
X145497968Y-83631257D01*
X145493102Y-83628244D01*
X145493098Y-83628241D01*
X145315918Y-83518536D01*
X145315916Y-83518535D01*
X145311045Y-83515519D01*
X145305703Y-83513449D01*
X145305696Y-83513446D01*
X145111385Y-83438170D01*
X145111386Y-83438170D01*
X145106037Y-83436098D01*
X145100411Y-83435046D01*
X145100403Y-83435044D01*
X144895556Y-83396752D01*
X144895553Y-83396751D01*
X144889927Y-83395700D01*
X144670073Y-83395700D01*
X144664447Y-83396751D01*
X144664443Y-83396752D01*
X144459596Y-83435044D01*
X144459585Y-83435046D01*
X144453963Y-83436098D01*
X144448616Y-83438169D01*
X144448614Y-83438170D01*
X144254303Y-83513446D01*
X144254292Y-83513451D01*
X144248955Y-83515519D01*
X144244088Y-83518532D01*
X144244081Y-83518536D01*
X144066901Y-83628241D01*
X144066891Y-83628247D01*
X144062032Y-83631257D01*
X144057806Y-83635109D01*
X144057796Y-83635117D01*
X143903798Y-83775505D01*
X143903793Y-83775509D01*
X143899558Y-83779371D01*
X143896104Y-83783944D01*
X143896101Y-83783948D01*
X143774078Y-83945534D01*
X143767067Y-83954818D01*
X143764517Y-83959938D01*
X143764512Y-83959947D01*
X143696731Y-84096070D01*
X143669069Y-84151623D01*
X143667503Y-84157124D01*
X143667502Y-84157129D01*
X143610470Y-84357576D01*
X143610467Y-84357587D01*
X143608904Y-84363084D01*
X143608376Y-84368781D01*
X143608375Y-84368787D01*
X143601624Y-84441646D01*
X143588618Y-84582000D01*
X132128613Y-84582000D01*
X132108035Y-84561422D01*
X132103604Y-84558319D01*
X132103600Y-84558316D01*
X131936968Y-84441639D01*
X131936966Y-84441637D01*
X131932539Y-84438538D01*
X131927642Y-84436254D01*
X131927636Y-84436251D01*
X131743275Y-84350282D01*
X131743268Y-84350279D01*
X131738369Y-84347995D01*
X131733142Y-84346594D01*
X131733141Y-84346594D01*
X131536659Y-84293947D01*
X131531427Y-84292545D01*
X131526035Y-84292073D01*
X131526028Y-84292072D01*
X131323395Y-84274345D01*
X131318000Y-84273873D01*
X131312605Y-84274345D01*
X131109971Y-84292072D01*
X131109962Y-84292073D01*
X131104573Y-84292545D01*
X131099341Y-84293946D01*
X131099340Y-84293947D01*
X130902858Y-84346594D01*
X130902853Y-84346595D01*
X130897631Y-84347995D01*
X130892735Y-84350277D01*
X130892724Y-84350282D01*
X130708372Y-84436248D01*
X130708368Y-84436250D01*
X130703462Y-84438538D01*
X130699029Y-84441641D01*
X130699022Y-84441646D01*
X130532400Y-84558316D01*
X130532395Y-84558319D01*
X130527965Y-84561422D01*
X130524141Y-84565245D01*
X130524135Y-84565251D01*
X130380301Y-84709085D01*
X130380295Y-84709091D01*
X130376472Y-84712915D01*
X130373369Y-84717345D01*
X130373366Y-84717350D01*
X130256696Y-84883972D01*
X130256691Y-84883979D01*
X130253588Y-84888412D01*
X130251300Y-84893318D01*
X130251298Y-84893322D01*
X130165332Y-85077674D01*
X130165327Y-85077685D01*
X130163045Y-85082581D01*
X130161645Y-85087803D01*
X130161644Y-85087808D01*
X130141577Y-85162699D01*
X130107595Y-85289523D01*
X130107123Y-85294912D01*
X130107122Y-85294921D01*
X130089625Y-85494917D01*
X130088923Y-85502950D01*
X124127591Y-85502950D01*
X124211739Y-85322496D01*
X124270635Y-85102692D01*
X124290468Y-84876000D01*
X124270635Y-84649308D01*
X124246254Y-84558316D01*
X124213141Y-84434736D01*
X124213140Y-84434734D01*
X124211739Y-84429504D01*
X124115568Y-84223266D01*
X123985047Y-84036861D01*
X123824139Y-83875953D01*
X123692741Y-83783948D01*
X123642173Y-83748540D01*
X123642171Y-83748539D01*
X123637734Y-83745432D01*
X123579724Y-83718381D01*
X123527549Y-83672625D01*
X123508130Y-83606000D01*
X123527549Y-83539375D01*
X123579725Y-83493618D01*
X123637734Y-83466568D01*
X123824139Y-83336047D01*
X123985047Y-83175139D01*
X124115568Y-82988734D01*
X124211739Y-82782496D01*
X124270635Y-82562692D01*
X124290468Y-82336000D01*
X124270635Y-82109308D01*
X124211739Y-81889504D01*
X124115568Y-81683266D01*
X123985047Y-81496861D01*
X123824139Y-81335953D01*
X123637734Y-81205432D01*
X123632827Y-81203143D01*
X123632817Y-81203138D01*
X123579724Y-81178380D01*
X123527549Y-81132623D01*
X123508130Y-81065997D01*
X123527550Y-80999372D01*
X123579723Y-80953618D01*
X123637734Y-80926568D01*
X123824139Y-80796047D01*
X123985047Y-80635139D01*
X124115568Y-80448734D01*
X124211739Y-80242496D01*
X124270635Y-80022692D01*
X124290468Y-79796000D01*
X124270635Y-79569308D01*
X124211739Y-79349504D01*
X124115568Y-79143266D01*
X123985047Y-78956861D01*
X123824139Y-78795953D01*
X123637734Y-78665432D01*
X123579724Y-78638381D01*
X123527549Y-78592625D01*
X123508130Y-78526000D01*
X123527549Y-78459375D01*
X123579725Y-78413618D01*
X123637734Y-78386568D01*
X123824139Y-78256047D01*
X123985047Y-78095139D01*
X124115568Y-77908734D01*
X124211739Y-77702496D01*
X124270635Y-77482692D01*
X124290468Y-77256000D01*
X124270635Y-77029308D01*
X124211739Y-76809504D01*
X124115568Y-76603266D01*
X123985047Y-76416861D01*
X123824139Y-76255953D01*
X123637734Y-76125432D01*
X123579724Y-76098381D01*
X123527549Y-76052625D01*
X123508130Y-75986000D01*
X123527549Y-75919375D01*
X123579725Y-75873618D01*
X123580319Y-75873341D01*
X123637734Y-75846568D01*
X123824139Y-75716047D01*
X123985047Y-75555139D01*
X124115568Y-75368734D01*
X124211739Y-75162496D01*
X124270635Y-74942692D01*
X124290468Y-74716000D01*
X124270635Y-74489308D01*
X124211739Y-74269504D01*
X124115568Y-74063266D01*
X123985047Y-73876861D01*
X123824139Y-73715953D01*
X123708497Y-73634980D01*
X123642173Y-73588540D01*
X123642171Y-73588539D01*
X123637734Y-73585432D01*
X123460144Y-73502620D01*
X123436405Y-73491550D01*
X123436403Y-73491549D01*
X123431496Y-73489261D01*
X123426271Y-73487861D01*
X123426263Y-73487858D01*
X123216916Y-73431764D01*
X123216907Y-73431762D01*
X123211692Y-73430365D01*
X123206304Y-73429893D01*
X123206301Y-73429893D01*
X122990395Y-73411004D01*
X122985000Y-73410532D01*
X122979605Y-73411004D01*
X122763698Y-73429893D01*
X122763693Y-73429893D01*
X122758308Y-73430365D01*
X122753094Y-73431762D01*
X122753083Y-73431764D01*
X122543736Y-73487858D01*
X122543724Y-73487862D01*
X122538504Y-73489261D01*
X122533599Y-73491547D01*
X122533594Y-73491550D01*
X122337176Y-73583142D01*
X122337172Y-73583144D01*
X122332266Y-73585432D01*
X122327833Y-73588535D01*
X122327826Y-73588540D01*
X122150296Y-73712847D01*
X122150291Y-73712850D01*
X122145861Y-73715953D01*
X122142037Y-73719776D01*
X122142031Y-73719782D01*
X121988782Y-73873031D01*
X121988776Y-73873037D01*
X121984953Y-73876861D01*
X121981850Y-73881291D01*
X121981847Y-73881296D01*
X121857540Y-74058826D01*
X121857535Y-74058833D01*
X121854432Y-74063266D01*
X121852144Y-74068172D01*
X121852142Y-74068176D01*
X121760550Y-74264594D01*
X121760547Y-74264599D01*
X121758261Y-74269504D01*
X121756862Y-74274724D01*
X121756858Y-74274736D01*
X121700764Y-74484083D01*
X121700762Y-74484094D01*
X121699365Y-74489308D01*
X121679532Y-74716000D01*
X121680004Y-74721395D01*
X121686861Y-74799777D01*
X121699365Y-74942692D01*
X121700762Y-74947907D01*
X121700764Y-74947916D01*
X121756858Y-75157263D01*
X121756861Y-75157271D01*
X121758261Y-75162496D01*
X121854432Y-75368734D01*
X121984953Y-75555139D01*
X122145861Y-75716047D01*
X122332266Y-75846568D01*
X122337172Y-75848855D01*
X122337176Y-75848858D01*
X122390274Y-75873618D01*
X122442450Y-75919375D01*
X122461869Y-75986000D01*
X122442450Y-76052625D01*
X122390274Y-76098382D01*
X122337176Y-76123141D01*
X122337163Y-76123148D01*
X122332266Y-76125432D01*
X122327833Y-76128535D01*
X122327826Y-76128540D01*
X122150296Y-76252847D01*
X122150291Y-76252850D01*
X122145861Y-76255953D01*
X122142037Y-76259776D01*
X122142031Y-76259782D01*
X121988782Y-76413031D01*
X121988776Y-76413037D01*
X121984953Y-76416861D01*
X121981850Y-76421291D01*
X121981847Y-76421296D01*
X121857540Y-76598826D01*
X121857535Y-76598833D01*
X121854432Y-76603266D01*
X121852144Y-76608172D01*
X121852142Y-76608176D01*
X121760550Y-76804594D01*
X121760547Y-76804599D01*
X121758261Y-76809504D01*
X121756862Y-76814724D01*
X121756858Y-76814736D01*
X121700764Y-77024083D01*
X121700762Y-77024094D01*
X121699365Y-77029308D01*
X121679532Y-77256000D01*
X121680004Y-77261395D01*
X121686861Y-77339777D01*
X121699365Y-77482692D01*
X121700762Y-77487907D01*
X121700764Y-77487916D01*
X121756858Y-77697263D01*
X121756861Y-77697271D01*
X121758261Y-77702496D01*
X121854432Y-77908734D01*
X121984953Y-78095139D01*
X122145861Y-78256047D01*
X122332266Y-78386568D01*
X122337172Y-78388855D01*
X122337176Y-78388858D01*
X122390274Y-78413618D01*
X122442450Y-78459375D01*
X122461869Y-78526000D01*
X122442450Y-78592625D01*
X122390274Y-78638382D01*
X122337176Y-78663141D01*
X122337163Y-78663148D01*
X122332266Y-78665432D01*
X122327833Y-78668535D01*
X122327826Y-78668540D01*
X122150296Y-78792847D01*
X122150291Y-78792850D01*
X122145861Y-78795953D01*
X122142037Y-78799776D01*
X122142031Y-78799782D01*
X121988782Y-78953031D01*
X121988776Y-78953037D01*
X121984953Y-78956861D01*
X121981850Y-78961291D01*
X121981847Y-78961296D01*
X121857540Y-79138826D01*
X121857535Y-79138833D01*
X121854432Y-79143266D01*
X121852144Y-79148172D01*
X121852142Y-79148176D01*
X121760550Y-79344594D01*
X121760547Y-79344599D01*
X121758261Y-79349504D01*
X121756862Y-79354724D01*
X121756858Y-79354736D01*
X121700764Y-79564083D01*
X121700762Y-79564094D01*
X121699365Y-79569308D01*
X121679532Y-79796000D01*
X121680004Y-79801395D01*
X121686861Y-79879777D01*
X121699365Y-80022692D01*
X121700762Y-80027907D01*
X121700764Y-80027916D01*
X121756858Y-80237263D01*
X121756861Y-80237271D01*
X121758261Y-80242496D01*
X121854432Y-80448734D01*
X121984953Y-80635139D01*
X122145861Y-80796047D01*
X122332266Y-80926568D01*
X122390276Y-80953618D01*
X122442449Y-80999373D01*
X122461869Y-81065997D01*
X122442451Y-81132622D01*
X122390276Y-81178380D01*
X122337178Y-81203141D01*
X122337173Y-81203143D01*
X122332266Y-81205432D01*
X122327833Y-81208535D01*
X122327826Y-81208540D01*
X122150296Y-81332847D01*
X122150291Y-81332850D01*
X122145861Y-81335953D01*
X122142037Y-81339776D01*
X122142031Y-81339782D01*
X121988782Y-81493031D01*
X121988776Y-81493037D01*
X121984953Y-81496861D01*
X121981850Y-81501291D01*
X121981847Y-81501296D01*
X121857540Y-81678826D01*
X121857535Y-81678833D01*
X121854432Y-81683266D01*
X121852144Y-81688172D01*
X121852142Y-81688176D01*
X121760550Y-81884594D01*
X121760547Y-81884599D01*
X121758261Y-81889504D01*
X121756862Y-81894724D01*
X121756858Y-81894736D01*
X121700764Y-82104083D01*
X121700762Y-82104094D01*
X121699365Y-82109308D01*
X121679532Y-82336000D01*
X121680004Y-82341395D01*
X121686861Y-82419777D01*
X121699365Y-82562692D01*
X121700762Y-82567907D01*
X121700764Y-82567916D01*
X121756858Y-82777263D01*
X121756861Y-82777271D01*
X121758261Y-82782496D01*
X121854432Y-82988734D01*
X121984953Y-83175139D01*
X122145861Y-83336047D01*
X122332266Y-83466568D01*
X122337172Y-83468855D01*
X122337176Y-83468858D01*
X122390274Y-83493618D01*
X122442450Y-83539375D01*
X122461869Y-83606000D01*
X122442450Y-83672625D01*
X122390274Y-83718382D01*
X122337176Y-83743141D01*
X122337163Y-83743148D01*
X122332266Y-83745432D01*
X122327833Y-83748535D01*
X122327826Y-83748540D01*
X122150296Y-83872847D01*
X122150291Y-83872850D01*
X122145861Y-83875953D01*
X122142037Y-83879776D01*
X122142031Y-83879782D01*
X121988782Y-84033031D01*
X121988776Y-84033037D01*
X121984953Y-84036861D01*
X121981850Y-84041291D01*
X121981847Y-84041296D01*
X121857540Y-84218826D01*
X121857535Y-84218833D01*
X121854432Y-84223266D01*
X121852144Y-84228172D01*
X121852142Y-84228176D01*
X121760550Y-84424594D01*
X121760547Y-84424599D01*
X121758261Y-84429504D01*
X121756862Y-84434724D01*
X121756858Y-84434736D01*
X121700764Y-84644083D01*
X121700762Y-84644094D01*
X121699365Y-84649308D01*
X121679532Y-84876000D01*
X121680004Y-84881395D01*
X121698062Y-85087808D01*
X121699365Y-85102692D01*
X121700762Y-85107907D01*
X121700764Y-85107916D01*
X121756858Y-85317263D01*
X121756861Y-85317271D01*
X121758261Y-85322496D01*
X121760549Y-85327403D01*
X121760550Y-85327405D01*
X121786290Y-85382605D01*
X121854432Y-85528734D01*
X121984953Y-85715139D01*
X122145861Y-85876047D01*
X122332266Y-86006568D01*
X122337172Y-86008855D01*
X122337176Y-86008858D01*
X122390274Y-86033618D01*
X122442450Y-86079375D01*
X122461869Y-86146000D01*
X122442450Y-86212625D01*
X122390274Y-86258382D01*
X122337176Y-86283141D01*
X122337163Y-86283148D01*
X122332266Y-86285432D01*
X122327833Y-86288535D01*
X122327826Y-86288540D01*
X122150296Y-86412847D01*
X122150291Y-86412850D01*
X122145861Y-86415953D01*
X122142037Y-86419776D01*
X122142031Y-86419782D01*
X121988782Y-86573031D01*
X121988776Y-86573037D01*
X121984953Y-86576861D01*
X121981850Y-86581291D01*
X121981847Y-86581296D01*
X121857540Y-86758826D01*
X121857535Y-86758833D01*
X121854432Y-86763266D01*
X121852144Y-86768172D01*
X121852142Y-86768176D01*
X121760550Y-86964594D01*
X121760547Y-86964599D01*
X121758261Y-86969504D01*
X121756862Y-86974724D01*
X121756858Y-86974736D01*
X121700764Y-87184083D01*
X121700762Y-87184094D01*
X121699365Y-87189308D01*
X121679532Y-87416000D01*
X121680004Y-87421395D01*
X121686861Y-87499777D01*
X121699365Y-87642692D01*
X121700762Y-87647907D01*
X121700764Y-87647916D01*
X121756858Y-87857263D01*
X121756861Y-87857271D01*
X121758261Y-87862496D01*
X121854432Y-88068734D01*
X121984953Y-88255139D01*
X122145861Y-88416047D01*
X122332266Y-88546568D01*
X122337172Y-88548855D01*
X122337176Y-88548858D01*
X122390274Y-88573618D01*
X122442450Y-88619375D01*
X122461869Y-88686000D01*
X122442450Y-88752625D01*
X122390274Y-88798382D01*
X122337176Y-88823141D01*
X122337163Y-88823148D01*
X122332266Y-88825432D01*
X122327833Y-88828535D01*
X122327826Y-88828540D01*
X122150296Y-88952847D01*
X122150291Y-88952850D01*
X122145861Y-88955953D01*
X122142037Y-88959776D01*
X122142031Y-88959782D01*
X121988782Y-89113031D01*
X121988776Y-89113037D01*
X121984953Y-89116861D01*
X121981850Y-89121291D01*
X121981847Y-89121296D01*
X121857540Y-89298826D01*
X121857535Y-89298833D01*
X121854432Y-89303266D01*
X121852144Y-89308172D01*
X121852142Y-89308176D01*
X121760550Y-89504594D01*
X121760547Y-89504599D01*
X121758261Y-89509504D01*
X121756862Y-89514724D01*
X121756858Y-89514736D01*
X121700764Y-89724083D01*
X121700762Y-89724094D01*
X121699365Y-89729308D01*
X121679532Y-89956000D01*
X116670468Y-89956000D01*
X116650635Y-89729308D01*
X116591739Y-89509504D01*
X116495568Y-89303266D01*
X116365047Y-89116861D01*
X116204139Y-88955953D01*
X116017734Y-88825432D01*
X116012831Y-88823145D01*
X116012823Y-88823141D01*
X115959134Y-88798106D01*
X115906958Y-88752349D01*
X115887539Y-88685723D01*
X115906959Y-88619098D01*
X115959135Y-88573341D01*
X116012585Y-88548417D01*
X116021912Y-88543032D01*
X116199381Y-88418767D01*
X116207647Y-88411830D01*
X116360830Y-88258647D01*
X116367767Y-88250381D01*
X116492032Y-88072912D01*
X116497420Y-88063580D01*
X116588977Y-87867234D01*
X116592669Y-87857092D01*
X116640179Y-87679780D01*
X116640547Y-87668551D01*
X116629605Y-87666000D01*
X114100395Y-87666000D01*
X114089452Y-87668551D01*
X114089820Y-87679780D01*
X114137330Y-87857092D01*
X114141022Y-87867234D01*
X114232579Y-88063580D01*
X114237967Y-88072912D01*
X114362232Y-88250381D01*
X114369169Y-88258647D01*
X114522352Y-88411830D01*
X114530618Y-88418767D01*
X114708087Y-88543032D01*
X114717423Y-88548422D01*
X114770864Y-88573342D01*
X114823040Y-88619098D01*
X114842460Y-88685723D01*
X114823041Y-88752348D01*
X114770866Y-88798106D01*
X114743868Y-88810695D01*
X114712266Y-88825432D01*
X114707833Y-88828535D01*
X114707826Y-88828540D01*
X114530296Y-88952847D01*
X114530291Y-88952850D01*
X114525861Y-88955953D01*
X114522037Y-88959776D01*
X114522031Y-88959782D01*
X114368782Y-89113031D01*
X114368776Y-89113037D01*
X114364953Y-89116861D01*
X114361850Y-89121291D01*
X114361847Y-89121296D01*
X114237540Y-89298826D01*
X114237535Y-89298833D01*
X114234432Y-89303266D01*
X114232144Y-89308172D01*
X114232142Y-89308176D01*
X114140550Y-89504594D01*
X114140547Y-89504599D01*
X114138261Y-89509504D01*
X114136862Y-89514724D01*
X114136858Y-89514736D01*
X114080764Y-89724083D01*
X114080762Y-89724094D01*
X114079365Y-89729308D01*
X114059532Y-89956000D01*
X114060004Y-89961395D01*
X114066861Y-90039777D01*
X114079365Y-90182692D01*
X114080762Y-90187907D01*
X114080764Y-90187916D01*
X114136858Y-90397263D01*
X114136861Y-90397271D01*
X114138261Y-90402496D01*
X114234432Y-90608734D01*
X114364953Y-90795139D01*
X114525861Y-90956047D01*
X114712266Y-91086568D01*
X114717172Y-91088855D01*
X114717176Y-91088858D01*
X114770274Y-91113618D01*
X114822450Y-91159375D01*
X114841869Y-91226000D01*
X114822450Y-91292625D01*
X114770274Y-91338382D01*
X114717176Y-91363141D01*
X114717163Y-91363148D01*
X114712266Y-91365432D01*
X114707833Y-91368535D01*
X114707826Y-91368540D01*
X114530296Y-91492847D01*
X114530291Y-91492850D01*
X114525861Y-91495953D01*
X114522037Y-91499776D01*
X114522031Y-91499782D01*
X114368782Y-91653031D01*
X114368776Y-91653037D01*
X114364953Y-91656861D01*
X114361850Y-91661291D01*
X114361847Y-91661296D01*
X114237540Y-91838826D01*
X114237535Y-91838833D01*
X114234432Y-91843266D01*
X114232144Y-91848172D01*
X114232142Y-91848176D01*
X114140550Y-92044594D01*
X114140547Y-92044599D01*
X114138261Y-92049504D01*
X114136862Y-92054724D01*
X114136858Y-92054736D01*
X114080764Y-92264083D01*
X114080762Y-92264094D01*
X114079365Y-92269308D01*
X114059532Y-92496000D01*
X106586266Y-92496000D01*
X106529534Y-92374339D01*
X106402826Y-92193380D01*
X106246620Y-92037174D01*
X106218056Y-92017173D01*
X106070096Y-91913570D01*
X106070090Y-91913566D01*
X106065662Y-91910466D01*
X106060757Y-91908178D01*
X106060754Y-91908177D01*
X106002876Y-91881188D01*
X105936808Y-91850381D01*
X105884634Y-91804625D01*
X105865214Y-91738000D01*
X105884634Y-91671375D01*
X105936808Y-91625618D01*
X106065662Y-91565534D01*
X106246620Y-91438826D01*
X106402826Y-91282620D01*
X106529534Y-91101662D01*
X106622894Y-90901450D01*
X106680070Y-90688068D01*
X106699323Y-90468000D01*
X106680070Y-90247932D01*
X106622894Y-90034550D01*
X106529534Y-89834339D01*
X106402826Y-89653380D01*
X106246620Y-89497174D01*
X106218056Y-89477173D01*
X106070096Y-89373570D01*
X106070090Y-89373566D01*
X106065662Y-89370466D01*
X106060757Y-89368178D01*
X106060754Y-89368177D01*
X106002876Y-89341188D01*
X105936808Y-89310381D01*
X105884634Y-89264625D01*
X105865214Y-89198000D01*
X105884634Y-89131375D01*
X105936808Y-89085618D01*
X106065662Y-89025534D01*
X106246620Y-88898826D01*
X106402826Y-88742620D01*
X106529534Y-88561662D01*
X106622894Y-88361450D01*
X106680070Y-88148068D01*
X106699323Y-87928000D01*
X106680070Y-87707932D01*
X106622894Y-87494550D01*
X106529534Y-87294339D01*
X106402826Y-87113380D01*
X106246620Y-86957174D01*
X106218056Y-86937173D01*
X106070096Y-86833570D01*
X106070090Y-86833566D01*
X106065662Y-86830466D01*
X106060760Y-86828180D01*
X106060758Y-86828179D01*
X105936809Y-86770381D01*
X105884633Y-86724624D01*
X105865214Y-86657998D01*
X105884634Y-86591373D01*
X105936806Y-86545620D01*
X106065662Y-86485534D01*
X106246620Y-86358826D01*
X106402826Y-86202620D01*
X106529534Y-86021662D01*
X106622894Y-85821450D01*
X106680070Y-85608068D01*
X106699323Y-85388000D01*
X106680070Y-85167932D01*
X106622894Y-84954550D01*
X106586266Y-84876000D01*
X114059532Y-84876000D01*
X114060004Y-84881395D01*
X114078062Y-85087808D01*
X114079365Y-85102692D01*
X114080762Y-85107907D01*
X114080764Y-85107916D01*
X114136858Y-85317263D01*
X114136861Y-85317271D01*
X114138261Y-85322496D01*
X114140549Y-85327403D01*
X114140550Y-85327405D01*
X114166290Y-85382605D01*
X114234432Y-85528734D01*
X114364953Y-85715139D01*
X114525861Y-85876047D01*
X114712266Y-86006568D01*
X114717175Y-86008857D01*
X114717180Y-86008860D01*
X114770864Y-86033893D01*
X114823040Y-86079649D01*
X114842460Y-86146274D01*
X114823041Y-86212899D01*
X114770866Y-86258657D01*
X114717416Y-86283581D01*
X114708087Y-86288967D01*
X114530618Y-86413232D01*
X114522352Y-86420169D01*
X114369169Y-86573352D01*
X114362232Y-86581618D01*
X114237967Y-86759087D01*
X114232579Y-86768419D01*
X114141022Y-86964765D01*
X114137330Y-86974907D01*
X114089820Y-87152219D01*
X114089452Y-87163448D01*
X114100395Y-87166000D01*
X116629605Y-87166000D01*
X116640547Y-87163448D01*
X116640179Y-87152219D01*
X116592669Y-86974907D01*
X116588977Y-86964765D01*
X116497420Y-86768419D01*
X116492032Y-86759087D01*
X116367767Y-86581618D01*
X116360830Y-86573352D01*
X116207647Y-86420169D01*
X116199381Y-86413232D01*
X116021912Y-86288967D01*
X116012579Y-86283579D01*
X115959134Y-86258657D01*
X115906958Y-86212899D01*
X115887539Y-86146274D01*
X115906959Y-86079649D01*
X115959131Y-86033894D01*
X116017734Y-86006568D01*
X116204139Y-85876047D01*
X116365047Y-85715139D01*
X116495568Y-85528734D01*
X116591739Y-85322496D01*
X116650635Y-85102692D01*
X116670468Y-84876000D01*
X116650635Y-84649308D01*
X116626254Y-84558316D01*
X116593141Y-84434736D01*
X116593140Y-84434734D01*
X116591739Y-84429504D01*
X116495568Y-84223266D01*
X116365047Y-84036861D01*
X116204139Y-83875953D01*
X116072741Y-83783948D01*
X116022173Y-83748540D01*
X116022171Y-83748539D01*
X116017734Y-83745432D01*
X115959724Y-83718381D01*
X115907549Y-83672625D01*
X115888130Y-83606000D01*
X115907549Y-83539375D01*
X115959725Y-83493618D01*
X116017734Y-83466568D01*
X116204139Y-83336047D01*
X116365047Y-83175139D01*
X116495568Y-82988734D01*
X116591739Y-82782496D01*
X116650635Y-82562692D01*
X116670468Y-82336000D01*
X116650635Y-82109308D01*
X116591739Y-81889504D01*
X116495568Y-81683266D01*
X116365047Y-81496861D01*
X116204139Y-81335953D01*
X116017734Y-81205432D01*
X116012827Y-81203143D01*
X116012817Y-81203138D01*
X115959724Y-81178380D01*
X115907549Y-81132623D01*
X115888130Y-81065997D01*
X115907550Y-80999372D01*
X115959723Y-80953618D01*
X116017734Y-80926568D01*
X116204139Y-80796047D01*
X116365047Y-80635139D01*
X116495568Y-80448734D01*
X116591739Y-80242496D01*
X116650635Y-80022692D01*
X116670468Y-79796000D01*
X116650635Y-79569308D01*
X116591739Y-79349504D01*
X116495568Y-79143266D01*
X116365047Y-78956861D01*
X116204139Y-78795953D01*
X116017734Y-78665432D01*
X115959724Y-78638381D01*
X115907549Y-78592625D01*
X115888130Y-78526000D01*
X115907549Y-78459375D01*
X115959725Y-78413618D01*
X116017734Y-78386568D01*
X116204139Y-78256047D01*
X116365047Y-78095139D01*
X116495568Y-77908734D01*
X116591739Y-77702496D01*
X116650635Y-77482692D01*
X116670468Y-77256000D01*
X116650635Y-77029308D01*
X116591739Y-76809504D01*
X116495568Y-76603266D01*
X116365047Y-76416861D01*
X116204139Y-76255953D01*
X116017734Y-76125432D01*
X116012831Y-76123145D01*
X116012823Y-76123141D01*
X115959134Y-76098106D01*
X115906958Y-76052349D01*
X115887539Y-75985723D01*
X115906959Y-75919098D01*
X115959135Y-75873341D01*
X116012585Y-75848417D01*
X116021912Y-75843032D01*
X116199381Y-75718767D01*
X116207647Y-75711830D01*
X116360830Y-75558647D01*
X116367767Y-75550381D01*
X116492032Y-75372912D01*
X116497420Y-75363580D01*
X116588977Y-75167234D01*
X116592669Y-75157092D01*
X116640179Y-74979780D01*
X116640547Y-74968551D01*
X116629605Y-74966000D01*
X114100395Y-74966000D01*
X114089452Y-74968551D01*
X114089820Y-74979780D01*
X114137330Y-75157092D01*
X114141022Y-75167234D01*
X114232579Y-75363580D01*
X114237967Y-75372912D01*
X114362232Y-75550381D01*
X114369169Y-75558647D01*
X114522352Y-75711830D01*
X114530618Y-75718767D01*
X114708087Y-75843032D01*
X114717423Y-75848422D01*
X114770864Y-75873342D01*
X114823040Y-75919098D01*
X114842460Y-75985723D01*
X114823041Y-76052348D01*
X114770866Y-76098106D01*
X114743868Y-76110695D01*
X114712266Y-76125432D01*
X114707833Y-76128535D01*
X114707826Y-76128540D01*
X114530296Y-76252847D01*
X114530291Y-76252850D01*
X114525861Y-76255953D01*
X114522037Y-76259776D01*
X114522031Y-76259782D01*
X114368782Y-76413031D01*
X114368776Y-76413037D01*
X114364953Y-76416861D01*
X114361850Y-76421291D01*
X114361847Y-76421296D01*
X114237540Y-76598826D01*
X114237535Y-76598833D01*
X114234432Y-76603266D01*
X114232144Y-76608172D01*
X114232142Y-76608176D01*
X114140550Y-76804594D01*
X114140547Y-76804599D01*
X114138261Y-76809504D01*
X114136862Y-76814724D01*
X114136858Y-76814736D01*
X114080764Y-77024083D01*
X114080762Y-77024094D01*
X114079365Y-77029308D01*
X114059532Y-77256000D01*
X114060004Y-77261395D01*
X114066861Y-77339777D01*
X114079365Y-77482692D01*
X114080762Y-77487907D01*
X114080764Y-77487916D01*
X114136858Y-77697263D01*
X114136861Y-77697271D01*
X114138261Y-77702496D01*
X114234432Y-77908734D01*
X114364953Y-78095139D01*
X114525861Y-78256047D01*
X114712266Y-78386568D01*
X114717172Y-78388855D01*
X114717176Y-78388858D01*
X114770274Y-78413618D01*
X114822450Y-78459375D01*
X114841869Y-78526000D01*
X114822450Y-78592625D01*
X114770274Y-78638382D01*
X114717176Y-78663141D01*
X114717163Y-78663148D01*
X114712266Y-78665432D01*
X114707833Y-78668535D01*
X114707826Y-78668540D01*
X114530296Y-78792847D01*
X114530291Y-78792850D01*
X114525861Y-78795953D01*
X114522037Y-78799776D01*
X114522031Y-78799782D01*
X114368782Y-78953031D01*
X114368776Y-78953037D01*
X114364953Y-78956861D01*
X114361850Y-78961291D01*
X114361847Y-78961296D01*
X114237540Y-79138826D01*
X114237535Y-79138833D01*
X114234432Y-79143266D01*
X114232144Y-79148172D01*
X114232142Y-79148176D01*
X114140550Y-79344594D01*
X114140547Y-79344599D01*
X114138261Y-79349504D01*
X114136862Y-79354724D01*
X114136858Y-79354736D01*
X114080764Y-79564083D01*
X114080762Y-79564094D01*
X114079365Y-79569308D01*
X114059532Y-79796000D01*
X114060004Y-79801395D01*
X114066861Y-79879777D01*
X114079365Y-80022692D01*
X114080762Y-80027907D01*
X114080764Y-80027916D01*
X114136858Y-80237263D01*
X114136861Y-80237271D01*
X114138261Y-80242496D01*
X114234432Y-80448734D01*
X114364953Y-80635139D01*
X114525861Y-80796047D01*
X114712266Y-80926568D01*
X114770276Y-80953618D01*
X114822449Y-80999373D01*
X114841869Y-81065997D01*
X114822451Y-81132622D01*
X114770276Y-81178380D01*
X114717178Y-81203141D01*
X114717173Y-81203143D01*
X114712266Y-81205432D01*
X114707833Y-81208535D01*
X114707826Y-81208540D01*
X114530296Y-81332847D01*
X114530291Y-81332850D01*
X114525861Y-81335953D01*
X114522037Y-81339776D01*
X114522031Y-81339782D01*
X114368782Y-81493031D01*
X114368776Y-81493037D01*
X114364953Y-81496861D01*
X114361850Y-81501291D01*
X114361847Y-81501296D01*
X114237540Y-81678826D01*
X114237535Y-81678833D01*
X114234432Y-81683266D01*
X114232144Y-81688172D01*
X114232142Y-81688176D01*
X114140550Y-81884594D01*
X114140547Y-81884599D01*
X114138261Y-81889504D01*
X114136862Y-81894724D01*
X114136858Y-81894736D01*
X114080764Y-82104083D01*
X114080762Y-82104094D01*
X114079365Y-82109308D01*
X114059532Y-82336000D01*
X114060004Y-82341395D01*
X114066861Y-82419777D01*
X114079365Y-82562692D01*
X114080762Y-82567907D01*
X114080764Y-82567916D01*
X114136858Y-82777263D01*
X114136861Y-82777271D01*
X114138261Y-82782496D01*
X114234432Y-82988734D01*
X114364953Y-83175139D01*
X114525861Y-83336047D01*
X114712266Y-83466568D01*
X114717172Y-83468855D01*
X114717176Y-83468858D01*
X114770274Y-83493618D01*
X114822450Y-83539375D01*
X114841869Y-83606000D01*
X114822450Y-83672625D01*
X114770274Y-83718382D01*
X114717176Y-83743141D01*
X114717163Y-83743148D01*
X114712266Y-83745432D01*
X114707833Y-83748535D01*
X114707826Y-83748540D01*
X114530296Y-83872847D01*
X114530291Y-83872850D01*
X114525861Y-83875953D01*
X114522037Y-83879776D01*
X114522031Y-83879782D01*
X114368782Y-84033031D01*
X114368776Y-84033037D01*
X114364953Y-84036861D01*
X114361850Y-84041291D01*
X114361847Y-84041296D01*
X114237540Y-84218826D01*
X114237535Y-84218833D01*
X114234432Y-84223266D01*
X114232144Y-84228172D01*
X114232142Y-84228176D01*
X114140550Y-84424594D01*
X114140547Y-84424599D01*
X114138261Y-84429504D01*
X114136862Y-84434724D01*
X114136858Y-84434736D01*
X114080764Y-84644083D01*
X114080762Y-84644094D01*
X114079365Y-84649308D01*
X114059532Y-84876000D01*
X106586266Y-84876000D01*
X106529534Y-84754339D01*
X106402826Y-84573380D01*
X106246620Y-84417174D01*
X106177516Y-84368787D01*
X106070096Y-84293570D01*
X106070090Y-84293566D01*
X106065662Y-84290466D01*
X106060757Y-84288178D01*
X106060754Y-84288177D01*
X106002876Y-84261188D01*
X105936808Y-84230381D01*
X105884634Y-84184625D01*
X105865214Y-84118000D01*
X105884634Y-84051375D01*
X105936808Y-84005618D01*
X106065662Y-83945534D01*
X106246620Y-83818826D01*
X106402826Y-83662620D01*
X106529534Y-83481662D01*
X106622894Y-83281450D01*
X106680070Y-83068068D01*
X106699323Y-82848000D01*
X106680070Y-82627932D01*
X106622894Y-82414550D01*
X106529534Y-82214339D01*
X106402826Y-82033380D01*
X106246620Y-81877174D01*
X106218056Y-81857173D01*
X106070096Y-81753570D01*
X106070090Y-81753566D01*
X106065662Y-81750466D01*
X106060757Y-81748178D01*
X106060754Y-81748177D01*
X106002876Y-81721188D01*
X105936808Y-81690381D01*
X105884634Y-81644625D01*
X105865214Y-81578000D01*
X105884634Y-81511375D01*
X105936808Y-81465618D01*
X106065662Y-81405534D01*
X106246620Y-81278826D01*
X106402826Y-81122620D01*
X106529534Y-80941662D01*
X106622894Y-80741450D01*
X106680070Y-80528068D01*
X106699323Y-80308000D01*
X106680070Y-80087932D01*
X106622894Y-79874550D01*
X106529534Y-79674339D01*
X106402826Y-79493380D01*
X106246620Y-79337174D01*
X106218056Y-79317173D01*
X106070096Y-79213570D01*
X106070090Y-79213566D01*
X106065662Y-79210466D01*
X106060760Y-79208180D01*
X106060758Y-79208179D01*
X105936809Y-79150381D01*
X105884633Y-79104624D01*
X105865214Y-79037998D01*
X105884634Y-78971373D01*
X105936806Y-78925620D01*
X106065662Y-78865534D01*
X106246620Y-78738826D01*
X106402826Y-78582620D01*
X106529534Y-78401662D01*
X106622894Y-78201450D01*
X106680070Y-77988068D01*
X106699323Y-77768000D01*
X106680070Y-77547932D01*
X106622894Y-77334550D01*
X106529534Y-77134339D01*
X106402826Y-76953380D01*
X106246620Y-76797174D01*
X106218056Y-76777173D01*
X106070096Y-76673570D01*
X106070090Y-76673566D01*
X106065662Y-76670466D01*
X106060757Y-76668178D01*
X106060754Y-76668177D01*
X106002876Y-76641188D01*
X105936808Y-76610381D01*
X105884634Y-76564625D01*
X105865214Y-76498000D01*
X105884634Y-76431375D01*
X105936808Y-76385618D01*
X106065662Y-76325534D01*
X106246620Y-76198826D01*
X106402826Y-76042620D01*
X106529534Y-75861662D01*
X106622894Y-75661450D01*
X106680070Y-75448068D01*
X106699323Y-75228000D01*
X106680070Y-75007932D01*
X106622894Y-74794550D01*
X106529534Y-74594339D01*
X106437884Y-74463448D01*
X114089452Y-74463448D01*
X114100395Y-74466000D01*
X115098674Y-74466000D01*
X115111549Y-74462549D01*
X115115000Y-74449674D01*
X115615000Y-74449674D01*
X115618450Y-74462549D01*
X115631326Y-74466000D01*
X116629605Y-74466000D01*
X116640547Y-74463448D01*
X116640179Y-74452219D01*
X116592669Y-74274907D01*
X116588977Y-74264765D01*
X116497420Y-74068419D01*
X116492032Y-74059087D01*
X116367767Y-73881618D01*
X116360830Y-73873352D01*
X116207647Y-73720169D01*
X116199381Y-73713232D01*
X116021912Y-73588967D01*
X116012580Y-73583579D01*
X115816234Y-73492022D01*
X115806092Y-73488330D01*
X115628780Y-73440820D01*
X115617551Y-73440452D01*
X115615000Y-73451395D01*
X115615000Y-74449674D01*
X115115000Y-74449674D01*
X115115000Y-73451395D01*
X115112448Y-73440452D01*
X115101219Y-73440820D01*
X114923907Y-73488330D01*
X114913765Y-73492022D01*
X114717419Y-73583579D01*
X114708087Y-73588967D01*
X114530618Y-73713232D01*
X114522352Y-73720169D01*
X114369169Y-73873352D01*
X114362232Y-73881618D01*
X114237967Y-74059087D01*
X114232579Y-74068419D01*
X114141022Y-74264765D01*
X114137330Y-74274907D01*
X114089820Y-74452219D01*
X114089452Y-74463448D01*
X106437884Y-74463448D01*
X106402826Y-74413380D01*
X106246620Y-74257174D01*
X106218056Y-74237173D01*
X106070096Y-74133570D01*
X106070090Y-74133566D01*
X106065662Y-74130466D01*
X106060757Y-74128178D01*
X106060754Y-74128177D01*
X105966656Y-74084299D01*
X105936808Y-74070381D01*
X105884634Y-74024625D01*
X105865214Y-73958000D01*
X105884634Y-73891375D01*
X105936808Y-73845618D01*
X106065662Y-73785534D01*
X106246620Y-73658826D01*
X106402826Y-73502620D01*
X106529534Y-73321662D01*
X106531536Y-73317368D01*
X130094100Y-73317368D01*
X130094453Y-73323964D01*
X130099673Y-73372517D01*
X130103211Y-73387491D01*
X130147647Y-73506627D01*
X130156062Y-73522039D01*
X130231598Y-73622942D01*
X130244007Y-73635351D01*
X130344910Y-73710887D01*
X130360322Y-73719302D01*
X130479458Y-73763738D01*
X130494432Y-73767276D01*
X130542985Y-73772496D01*
X130549582Y-73772850D01*
X131051674Y-73772850D01*
X131064549Y-73769399D01*
X131068000Y-73756524D01*
X131568000Y-73756524D01*
X131571450Y-73769399D01*
X131584326Y-73772850D01*
X132086418Y-73772850D01*
X132093014Y-73772496D01*
X132141567Y-73767276D01*
X132156541Y-73763738D01*
X132275677Y-73719302D01*
X132291089Y-73710887D01*
X132391992Y-73635351D01*
X132398965Y-73628378D01*
X143593700Y-73628378D01*
X143593701Y-73631672D01*
X143594053Y-73634950D01*
X143594054Y-73634961D01*
X143599279Y-73683568D01*
X143599280Y-73683573D01*
X143600109Y-73691283D01*
X143602819Y-73698549D01*
X143602820Y-73698553D01*
X143629244Y-73769399D01*
X143650404Y-73826131D01*
X143655718Y-73833230D01*
X143655719Y-73833231D01*
X143691941Y-73881618D01*
X143736654Y-73941346D01*
X143851869Y-74027596D01*
X143986717Y-74077891D01*
X144046327Y-74084300D01*
X145513672Y-74084299D01*
X145573283Y-74077891D01*
X145708131Y-74027596D01*
X145823346Y-73941346D01*
X145909596Y-73826131D01*
X145959891Y-73691283D01*
X145966300Y-73631673D01*
X145966299Y-72164328D01*
X145959891Y-72104717D01*
X145909596Y-71969869D01*
X145823346Y-71854654D01*
X145715519Y-71773935D01*
X145715231Y-71773719D01*
X145715230Y-71773718D01*
X145708131Y-71768404D01*
X145592783Y-71725382D01*
X145580552Y-71720820D01*
X145580550Y-71720819D01*
X145573283Y-71718109D01*
X145565570Y-71717279D01*
X145565567Y-71717279D01*
X145516980Y-71712055D01*
X145516969Y-71712054D01*
X145513673Y-71711700D01*
X145510350Y-71711700D01*
X144049639Y-71711700D01*
X144049620Y-71711700D01*
X144046328Y-71711701D01*
X144043050Y-71712053D01*
X144043038Y-71712054D01*
X143994431Y-71717279D01*
X143994425Y-71717280D01*
X143986717Y-71718109D01*
X143979452Y-71720818D01*
X143979446Y-71720820D01*
X143860180Y-71765304D01*
X143860178Y-71765304D01*
X143851869Y-71768404D01*
X143844772Y-71773716D01*
X143844768Y-71773719D01*
X143743750Y-71849341D01*
X143743746Y-71849344D01*
X143736654Y-71854654D01*
X143731344Y-71861746D01*
X143731341Y-71861750D01*
X143655719Y-71962768D01*
X143655716Y-71962772D01*
X143650404Y-71969869D01*
X143647304Y-71978178D01*
X143647304Y-71978180D01*
X143602820Y-72097447D01*
X143602819Y-72097450D01*
X143600109Y-72104717D01*
X143599279Y-72112427D01*
X143599279Y-72112432D01*
X143594055Y-72161019D01*
X143594054Y-72161031D01*
X143593700Y-72164327D01*
X143593700Y-72167648D01*
X143593700Y-72167649D01*
X143593700Y-73628360D01*
X143593700Y-73628378D01*
X132398965Y-73628378D01*
X132404401Y-73622942D01*
X132479937Y-73522039D01*
X132488352Y-73506627D01*
X132532788Y-73387491D01*
X132536326Y-73372517D01*
X132541546Y-73323964D01*
X132541900Y-73317368D01*
X132541900Y-72815276D01*
X132538449Y-72802400D01*
X132525574Y-72798950D01*
X131584326Y-72798950D01*
X131571450Y-72802400D01*
X131568000Y-72815276D01*
X131568000Y-73756524D01*
X131068000Y-73756524D01*
X131068000Y-72815276D01*
X131064549Y-72802400D01*
X131051674Y-72798950D01*
X130110426Y-72798950D01*
X130097550Y-72802400D01*
X130094100Y-72815276D01*
X130094100Y-73317368D01*
X106531536Y-73317368D01*
X106622894Y-73121450D01*
X106680070Y-72908068D01*
X106699323Y-72688000D01*
X106680070Y-72467932D01*
X106630416Y-72282624D01*
X130094100Y-72282624D01*
X130097550Y-72295499D01*
X130110426Y-72298950D01*
X131051674Y-72298950D01*
X131064549Y-72295499D01*
X131068000Y-72282624D01*
X131568000Y-72282624D01*
X131571450Y-72295499D01*
X131584326Y-72298950D01*
X132525574Y-72298950D01*
X132538449Y-72295499D01*
X132541900Y-72282624D01*
X132541900Y-71780532D01*
X132541546Y-71773935D01*
X132536326Y-71725382D01*
X132532788Y-71710408D01*
X132488352Y-71591272D01*
X132479937Y-71575860D01*
X132404401Y-71474957D01*
X132391992Y-71462548D01*
X132291089Y-71387012D01*
X132275677Y-71378597D01*
X132156541Y-71334161D01*
X132141567Y-71330623D01*
X132093014Y-71325403D01*
X132086418Y-71325050D01*
X131584326Y-71325050D01*
X131571450Y-71328500D01*
X131568000Y-71341376D01*
X131568000Y-72282624D01*
X131068000Y-72282624D01*
X131068000Y-71341376D01*
X131064549Y-71328500D01*
X131051674Y-71325050D01*
X130549582Y-71325050D01*
X130542985Y-71325403D01*
X130494432Y-71330623D01*
X130479458Y-71334161D01*
X130360322Y-71378597D01*
X130344910Y-71387012D01*
X130244007Y-71462548D01*
X130231598Y-71474957D01*
X130156062Y-71575860D01*
X130147647Y-71591272D01*
X130103211Y-71710408D01*
X130099673Y-71725382D01*
X130094453Y-71773935D01*
X130094100Y-71780532D01*
X130094100Y-72282624D01*
X106630416Y-72282624D01*
X106622894Y-72254550D01*
X106529534Y-72054339D01*
X106402826Y-71873380D01*
X106246620Y-71717174D01*
X106218056Y-71697173D01*
X106070096Y-71593570D01*
X106070090Y-71593566D01*
X106065662Y-71590466D01*
X106060757Y-71588178D01*
X106060754Y-71588177D01*
X105929972Y-71527193D01*
X105865450Y-71497106D01*
X105860235Y-71495708D01*
X105860228Y-71495706D01*
X105657300Y-71441331D01*
X105657289Y-71441329D01*
X105652068Y-71439930D01*
X105646676Y-71439458D01*
X105646669Y-71439457D01*
X105471619Y-71424143D01*
X105409891Y-71401187D01*
X105368624Y-71349861D01*
X105359459Y-71284644D01*
X105384980Y-71223932D01*
X105437989Y-71184851D01*
X105625427Y-71112900D01*
X105628465Y-71111734D01*
X105964721Y-70940403D01*
X106281225Y-70734863D01*
X106574511Y-70497365D01*
X106841365Y-70230511D01*
X107078863Y-69937225D01*
X107284403Y-69620721D01*
X107455734Y-69284465D01*
X107512156Y-69137478D01*
X107551237Y-69084471D01*
X107611949Y-69058950D01*
X107677166Y-69068115D01*
X107728492Y-69109382D01*
X107751448Y-69171110D01*
X107766457Y-69342668D01*
X107766458Y-69342674D01*
X107766930Y-69348068D01*
X107768329Y-69353289D01*
X107768331Y-69353300D01*
X107822706Y-69556228D01*
X107822708Y-69556235D01*
X107824106Y-69561450D01*
X107917466Y-69761662D01*
X107920566Y-69766090D01*
X107920570Y-69766096D01*
X108024173Y-69914056D01*
X108044174Y-69942620D01*
X108200380Y-70098826D01*
X108290859Y-70162180D01*
X108376903Y-70222429D01*
X108376906Y-70222430D01*
X108381338Y-70225534D01*
X108581550Y-70318894D01*
X108586770Y-70320292D01*
X108586771Y-70320293D01*
X108789699Y-70374668D01*
X108789701Y-70374668D01*
X108794932Y-70376070D01*
X109015000Y-70395323D01*
X109235068Y-70376070D01*
X109448450Y-70318894D01*
X109648662Y-70225534D01*
X109829620Y-70098826D01*
X109985826Y-69942620D01*
X110112534Y-69761662D01*
X110172618Y-69632808D01*
X110218375Y-69580634D01*
X110285000Y-69561214D01*
X110351625Y-69580634D01*
X110397381Y-69632808D01*
X110457466Y-69761662D01*
X110460566Y-69766090D01*
X110460570Y-69766096D01*
X110564173Y-69914056D01*
X110584174Y-69942620D01*
X110740380Y-70098826D01*
X110830859Y-70162180D01*
X110916903Y-70222429D01*
X110916906Y-70222430D01*
X110921338Y-70225534D01*
X111121550Y-70318894D01*
X111126770Y-70320292D01*
X111126771Y-70320293D01*
X111329699Y-70374668D01*
X111329701Y-70374668D01*
X111334932Y-70376070D01*
X111555000Y-70395323D01*
X111775068Y-70376070D01*
X111988450Y-70318894D01*
X112188662Y-70225534D01*
X112369620Y-70098826D01*
X112525826Y-69942620D01*
X112652534Y-69761662D01*
X112745894Y-69561450D01*
X112803070Y-69348068D01*
X112822323Y-69128000D01*
X112803070Y-68907932D01*
X112745894Y-68694550D01*
X112652534Y-68494339D01*
X112525826Y-68313380D01*
X112369620Y-68157174D01*
X112341056Y-68137173D01*
X112193096Y-68033570D01*
X112193090Y-68033566D01*
X112188662Y-68030466D01*
X112183757Y-68028178D01*
X112183754Y-68028177D01*
X112125876Y-68001188D01*
X112059808Y-67970381D01*
X112007634Y-67924625D01*
X111988214Y-67858000D01*
X111999873Y-67818000D01*
X149556559Y-67818000D01*
X149556729Y-67821244D01*
X149574171Y-68154068D01*
X149576310Y-68194871D01*
X149576815Y-68198064D01*
X149576817Y-68198076D01*
X149634838Y-68564404D01*
X149634840Y-68564417D01*
X149635347Y-68567613D01*
X149636184Y-68570737D01*
X149636186Y-68570746D01*
X149727981Y-68913330D01*
X149733022Y-68932143D01*
X149734179Y-68935158D01*
X149734182Y-68935166D01*
X149824753Y-69171110D01*
X149868266Y-69284465D01*
X149869735Y-69287348D01*
X149869739Y-69287357D01*
X150038122Y-69617827D01*
X150039597Y-69620721D01*
X150245137Y-69937225D01*
X150482635Y-70230511D01*
X150749489Y-70497365D01*
X151042775Y-70734863D01*
X151359279Y-70940403D01*
X151695535Y-71111734D01*
X152047857Y-71246978D01*
X152412387Y-71344653D01*
X152785129Y-71403690D01*
X153162000Y-71423441D01*
X153538871Y-71403690D01*
X153911613Y-71344653D01*
X154276143Y-71246978D01*
X154628465Y-71111734D01*
X154964721Y-70940403D01*
X155281225Y-70734863D01*
X155574511Y-70497365D01*
X155841365Y-70230511D01*
X156078863Y-69937225D01*
X156284403Y-69620721D01*
X156455734Y-69284465D01*
X156590978Y-68932143D01*
X156688653Y-68567613D01*
X156747690Y-68194871D01*
X156767441Y-67818000D01*
X156753029Y-67543004D01*
X162965971Y-67543004D01*
X162975422Y-67549565D01*
X162977358Y-67550288D01*
X162992332Y-67553826D01*
X163040885Y-67559046D01*
X163047482Y-67559400D01*
X166136518Y-67559400D01*
X166143114Y-67559046D01*
X166191662Y-67553827D01*
X166206647Y-67550285D01*
X166208577Y-67549565D01*
X166218027Y-67543004D01*
X166212157Y-67533110D01*
X164603542Y-65924495D01*
X164592000Y-65917831D01*
X164580457Y-65924495D01*
X162971841Y-67533110D01*
X162965971Y-67543004D01*
X156753029Y-67543004D01*
X156747690Y-67441129D01*
X156694281Y-67103918D01*
X162592000Y-67103918D01*
X162592353Y-67110514D01*
X162597572Y-67159064D01*
X162601112Y-67174044D01*
X162601833Y-67175976D01*
X162608394Y-67185427D01*
X162618290Y-67179555D01*
X164226904Y-65570942D01*
X164233568Y-65559400D01*
X164950431Y-65559400D01*
X164957095Y-65570942D01*
X166565710Y-67179557D01*
X166575604Y-67185427D01*
X166582165Y-67175977D01*
X166582885Y-67174047D01*
X166586427Y-67159062D01*
X166586888Y-67154778D01*
X180650900Y-67154778D01*
X180650901Y-67158072D01*
X180651253Y-67161350D01*
X180651254Y-67161361D01*
X180656479Y-67209968D01*
X180656480Y-67209973D01*
X180657309Y-67217683D01*
X180660019Y-67224949D01*
X180660020Y-67224953D01*
X180662678Y-67232079D01*
X180707604Y-67352531D01*
X180712918Y-67359630D01*
X180712919Y-67359631D01*
X180773928Y-67441129D01*
X180793854Y-67467746D01*
X180909069Y-67553996D01*
X181043917Y-67604291D01*
X181103527Y-67610700D01*
X184199272Y-67610699D01*
X184258883Y-67604291D01*
X184393731Y-67553996D01*
X184508946Y-67467746D01*
X184595196Y-67352531D01*
X184645491Y-67217683D01*
X184651900Y-67158073D01*
X184651899Y-64062328D01*
X184645491Y-64002717D01*
X184595196Y-63867869D01*
X184508946Y-63752654D01*
X184393731Y-63666404D01*
X184258883Y-63616109D01*
X184251170Y-63615279D01*
X184251167Y-63615279D01*
X184202580Y-63610055D01*
X184202569Y-63610054D01*
X184199273Y-63609700D01*
X184195950Y-63609700D01*
X181106839Y-63609700D01*
X181106820Y-63609700D01*
X181103528Y-63609701D01*
X181100250Y-63610053D01*
X181100238Y-63610054D01*
X181051631Y-63615279D01*
X181051625Y-63615280D01*
X181043917Y-63616109D01*
X181036652Y-63618818D01*
X181036646Y-63618820D01*
X180917380Y-63663304D01*
X180917378Y-63663304D01*
X180909069Y-63666404D01*
X180901972Y-63671716D01*
X180901968Y-63671719D01*
X180800950Y-63747341D01*
X180800946Y-63747344D01*
X180793854Y-63752654D01*
X180788544Y-63759746D01*
X180788541Y-63759750D01*
X180712919Y-63860768D01*
X180712916Y-63860772D01*
X180707604Y-63867869D01*
X180704504Y-63876178D01*
X180704504Y-63876180D01*
X180660020Y-63995447D01*
X180660019Y-63995450D01*
X180657309Y-64002717D01*
X180656479Y-64010427D01*
X180656479Y-64010432D01*
X180651255Y-64059019D01*
X180651254Y-64059031D01*
X180650900Y-64062327D01*
X180650900Y-64065648D01*
X180650900Y-64065649D01*
X180650900Y-67154760D01*
X180650900Y-67154778D01*
X166586888Y-67154778D01*
X166591646Y-67110514D01*
X166592000Y-67103918D01*
X166592000Y-64014882D01*
X166591646Y-64008285D01*
X166586426Y-63959732D01*
X166582888Y-63944758D01*
X166582165Y-63942822D01*
X166575604Y-63933371D01*
X166565710Y-63939241D01*
X164957095Y-65547857D01*
X164950431Y-65559400D01*
X164233568Y-65559400D01*
X164226904Y-65547857D01*
X162618290Y-63939243D01*
X162608394Y-63933372D01*
X162601833Y-63942823D01*
X162601112Y-63944756D01*
X162597573Y-63959732D01*
X162592353Y-64008285D01*
X162592000Y-64014882D01*
X162592000Y-67103918D01*
X156694281Y-67103918D01*
X156688653Y-67068387D01*
X156590978Y-66703857D01*
X156455734Y-66351535D01*
X156284403Y-66015280D01*
X156078863Y-65698775D01*
X155841365Y-65405489D01*
X155574511Y-65138635D01*
X155281225Y-64901137D01*
X154964721Y-64695597D01*
X154961833Y-64694125D01*
X154961827Y-64694122D01*
X154631357Y-64525739D01*
X154631348Y-64525735D01*
X154628465Y-64524266D01*
X154625433Y-64523102D01*
X154279166Y-64390182D01*
X154279158Y-64390179D01*
X154276143Y-64389022D01*
X154273018Y-64388184D01*
X154273013Y-64388183D01*
X153914746Y-64292186D01*
X153914737Y-64292184D01*
X153911613Y-64291347D01*
X153908417Y-64290840D01*
X153908404Y-64290838D01*
X153542076Y-64232817D01*
X153542064Y-64232815D01*
X153538871Y-64232310D01*
X153535638Y-64232140D01*
X153535633Y-64232140D01*
X153165244Y-64212729D01*
X153162000Y-64212559D01*
X153158756Y-64212729D01*
X152788366Y-64232140D01*
X152788359Y-64232140D01*
X152785129Y-64232310D01*
X152781937Y-64232815D01*
X152781923Y-64232817D01*
X152415595Y-64290838D01*
X152415578Y-64290841D01*
X152412387Y-64291347D01*
X152409266Y-64292183D01*
X152409253Y-64292186D01*
X152050986Y-64388183D01*
X152050975Y-64388186D01*
X152047857Y-64389022D01*
X152044846Y-64390177D01*
X152044833Y-64390182D01*
X151698566Y-64523102D01*
X151698557Y-64523105D01*
X151695535Y-64524266D01*
X151692658Y-64525731D01*
X151692642Y-64525739D01*
X151362173Y-64694122D01*
X151362159Y-64694129D01*
X151359280Y-64695597D01*
X151356560Y-64697363D01*
X151356552Y-64697368D01*
X151045503Y-64899365D01*
X151045497Y-64899368D01*
X151042775Y-64901137D01*
X151040255Y-64903177D01*
X151040249Y-64903182D01*
X150752007Y-65136595D01*
X150751996Y-65136604D01*
X150749489Y-65138635D01*
X150747204Y-65140919D01*
X150747194Y-65140929D01*
X150484929Y-65403194D01*
X150484919Y-65403204D01*
X150482635Y-65405489D01*
X150480604Y-65407996D01*
X150480595Y-65408007D01*
X150247182Y-65696249D01*
X150247177Y-65696255D01*
X150245137Y-65698775D01*
X150243368Y-65701497D01*
X150243365Y-65701503D01*
X150041368Y-66012552D01*
X150041363Y-66012560D01*
X150039597Y-66015280D01*
X150038129Y-66018159D01*
X150038122Y-66018173D01*
X149869739Y-66348642D01*
X149869731Y-66348658D01*
X149868266Y-66351535D01*
X149867105Y-66354557D01*
X149867102Y-66354566D01*
X149734182Y-66700833D01*
X149734177Y-66700846D01*
X149733022Y-66703857D01*
X149732186Y-66706975D01*
X149732183Y-66706986D01*
X149636186Y-67065253D01*
X149636183Y-67065266D01*
X149635347Y-67068387D01*
X149634841Y-67071578D01*
X149634838Y-67071595D01*
X149576817Y-67437923D01*
X149576817Y-67437927D01*
X149576310Y-67441129D01*
X149576140Y-67444359D01*
X149576140Y-67444366D01*
X149567442Y-67610344D01*
X149556559Y-67818000D01*
X111999873Y-67818000D01*
X112007634Y-67791375D01*
X112059808Y-67745618D01*
X112188662Y-67685534D01*
X112369620Y-67558826D01*
X112525826Y-67402620D01*
X112652534Y-67221662D01*
X112745894Y-67021450D01*
X112803070Y-66808068D01*
X112822323Y-66588000D01*
X112803070Y-66367932D01*
X112798676Y-66351535D01*
X112788307Y-66312837D01*
X112745894Y-66154550D01*
X112652534Y-65954339D01*
X112525826Y-65773380D01*
X112369620Y-65617174D01*
X112270625Y-65547857D01*
X112193096Y-65493570D01*
X112193090Y-65493566D01*
X112188662Y-65490466D01*
X112183757Y-65488178D01*
X112183754Y-65488177D01*
X112006427Y-65405489D01*
X111988450Y-65397106D01*
X111983235Y-65395708D01*
X111983228Y-65395706D01*
X111780300Y-65341331D01*
X111780289Y-65341329D01*
X111775068Y-65339930D01*
X111769676Y-65339458D01*
X111769669Y-65339457D01*
X111560395Y-65321149D01*
X111555000Y-65320677D01*
X111549605Y-65321149D01*
X111340330Y-65339457D01*
X111340321Y-65339458D01*
X111334932Y-65339930D01*
X111329711Y-65341328D01*
X111329699Y-65341331D01*
X111126777Y-65395705D01*
X111126772Y-65395706D01*
X111121550Y-65397106D01*
X111116654Y-65399388D01*
X111116643Y-65399393D01*
X110926249Y-65488176D01*
X110926245Y-65488178D01*
X110921339Y-65490466D01*
X110916906Y-65493569D01*
X110916899Y-65493574D01*
X110744815Y-65614068D01*
X110744810Y-65614071D01*
X110740380Y-65617174D01*
X110736556Y-65620997D01*
X110736550Y-65621003D01*
X110588003Y-65769550D01*
X110587997Y-65769556D01*
X110584174Y-65773380D01*
X110581071Y-65777810D01*
X110581068Y-65777815D01*
X110460574Y-65949899D01*
X110460569Y-65949906D01*
X110457466Y-65954339D01*
X110455178Y-65959245D01*
X110455176Y-65959249D01*
X110397382Y-66083189D01*
X110351625Y-66135365D01*
X110285000Y-66154784D01*
X110218375Y-66135365D01*
X110172618Y-66083189D01*
X110139679Y-66012552D01*
X110112534Y-65954339D01*
X109985826Y-65773380D01*
X109829620Y-65617174D01*
X109730625Y-65547857D01*
X109653096Y-65493570D01*
X109653090Y-65493566D01*
X109648662Y-65490466D01*
X109643757Y-65488178D01*
X109643754Y-65488177D01*
X109466427Y-65405489D01*
X109448450Y-65397106D01*
X109443235Y-65395708D01*
X109443228Y-65395706D01*
X109240300Y-65341331D01*
X109240289Y-65341329D01*
X109235068Y-65339930D01*
X109229676Y-65339458D01*
X109229669Y-65339457D01*
X109020395Y-65321149D01*
X109015000Y-65320677D01*
X109009605Y-65321149D01*
X108800330Y-65339457D01*
X108800321Y-65339458D01*
X108794932Y-65339930D01*
X108789711Y-65341328D01*
X108789699Y-65341331D01*
X108586777Y-65395705D01*
X108586772Y-65395706D01*
X108581550Y-65397106D01*
X108576654Y-65399388D01*
X108576643Y-65399393D01*
X108386249Y-65488176D01*
X108386245Y-65488178D01*
X108381339Y-65490466D01*
X108376906Y-65493569D01*
X108376899Y-65493574D01*
X108204815Y-65614068D01*
X108204810Y-65614071D01*
X108200380Y-65617174D01*
X108196556Y-65620997D01*
X108196550Y-65621003D01*
X108048003Y-65769550D01*
X108047997Y-65769556D01*
X108044174Y-65773380D01*
X108041071Y-65777810D01*
X108041068Y-65777815D01*
X107920574Y-65949899D01*
X107920569Y-65949906D01*
X107917466Y-65954339D01*
X107915178Y-65959245D01*
X107915176Y-65959249D01*
X107826393Y-66149643D01*
X107826388Y-66149654D01*
X107824106Y-66154550D01*
X107822706Y-66159772D01*
X107822705Y-66159777D01*
X107768331Y-66362699D01*
X107768328Y-66362711D01*
X107766930Y-66367932D01*
X107766458Y-66373321D01*
X107766457Y-66373330D01*
X107757148Y-66479739D01*
X107734192Y-66541466D01*
X107682866Y-66582733D01*
X107617649Y-66591898D01*
X107556937Y-66566377D01*
X107517856Y-66513368D01*
X107456900Y-66354572D01*
X107456897Y-66354566D01*
X107455734Y-66351535D01*
X107284403Y-66015280D01*
X107078863Y-65698775D01*
X106841365Y-65405489D01*
X106574511Y-65138635D01*
X106281225Y-64901137D01*
X105964721Y-64695597D01*
X105961833Y-64694125D01*
X105961827Y-64694122D01*
X105631357Y-64525739D01*
X105631348Y-64525735D01*
X105628465Y-64524266D01*
X105625433Y-64523102D01*
X105279166Y-64390182D01*
X105279158Y-64390179D01*
X105276143Y-64389022D01*
X105273018Y-64388184D01*
X105273013Y-64388183D01*
X104914746Y-64292186D01*
X104914737Y-64292184D01*
X104911613Y-64291347D01*
X104908417Y-64290840D01*
X104908404Y-64290838D01*
X104542076Y-64232817D01*
X104542064Y-64232815D01*
X104538871Y-64232310D01*
X104535638Y-64232140D01*
X104535633Y-64232140D01*
X104165244Y-64212729D01*
X104162000Y-64212559D01*
X104158756Y-64212729D01*
X103788366Y-64232140D01*
X103788359Y-64232140D01*
X103785129Y-64232310D01*
X103781937Y-64232815D01*
X103781923Y-64232817D01*
X103415595Y-64290838D01*
X103415578Y-64290841D01*
X103412387Y-64291347D01*
X103409266Y-64292183D01*
X103409253Y-64292186D01*
X103050986Y-64388183D01*
X103050975Y-64388186D01*
X103047857Y-64389022D01*
X103044846Y-64390177D01*
X103044833Y-64390182D01*
X102698566Y-64523102D01*
X102698557Y-64523105D01*
X102695535Y-64524266D01*
X102692658Y-64525731D01*
X102692642Y-64525739D01*
X102362173Y-64694122D01*
X102362159Y-64694129D01*
X102359280Y-64695597D01*
X102356560Y-64697363D01*
X102356552Y-64697368D01*
X102045503Y-64899365D01*
X102045497Y-64899368D01*
X102042775Y-64901137D01*
X102040255Y-64903177D01*
X102040249Y-64903182D01*
X101752007Y-65136595D01*
X101751996Y-65136604D01*
X101749489Y-65138635D01*
X101747204Y-65140919D01*
X101747194Y-65140929D01*
X101484929Y-65403194D01*
X101484919Y-65403204D01*
X101482635Y-65405489D01*
X101480604Y-65407996D01*
X101480595Y-65408007D01*
X101247182Y-65696249D01*
X101247177Y-65696255D01*
X101245137Y-65698775D01*
X101243368Y-65701497D01*
X101243365Y-65701503D01*
X101041368Y-66012552D01*
X101041363Y-66012560D01*
X101039597Y-66015280D01*
X101038129Y-66018159D01*
X101038122Y-66018173D01*
X100869739Y-66348642D01*
X100869731Y-66348658D01*
X100868266Y-66351535D01*
X100867105Y-66354557D01*
X100867102Y-66354566D01*
X100734182Y-66700833D01*
X100734177Y-66700846D01*
X100733022Y-66703857D01*
X100732186Y-66706975D01*
X100732183Y-66706986D01*
X100636186Y-67065253D01*
X100636183Y-67065266D01*
X100635347Y-67068387D01*
X100634841Y-67071578D01*
X100634838Y-67071595D01*
X100576817Y-67437923D01*
X100576817Y-67437927D01*
X100576310Y-67441129D01*
X100576140Y-67444359D01*
X100576140Y-67444366D01*
X100567442Y-67610344D01*
X100556559Y-67818000D01*
X100556729Y-67821244D01*
X100574171Y-68154068D01*
X100576310Y-68194871D01*
X100576815Y-68198064D01*
X100576817Y-68198076D01*
X100634838Y-68564404D01*
X100634840Y-68564417D01*
X100635347Y-68567613D01*
X100636184Y-68570737D01*
X100636186Y-68570746D01*
X100727981Y-68913330D01*
X100733022Y-68932143D01*
X100734179Y-68935158D01*
X100734182Y-68935166D01*
X100824753Y-69171110D01*
X100868266Y-69284465D01*
X100869735Y-69287348D01*
X100869739Y-69287357D01*
X101038122Y-69617827D01*
X101039597Y-69620721D01*
X101245137Y-69937225D01*
X101482635Y-70230511D01*
X101749489Y-70497365D01*
X102042775Y-70734863D01*
X102359279Y-70940403D01*
X102695535Y-71111734D01*
X102886011Y-71184851D01*
X102939019Y-71223932D01*
X102964540Y-71284644D01*
X102955375Y-71349861D01*
X102914108Y-71401187D01*
X102852380Y-71424143D01*
X102677330Y-71439457D01*
X102677321Y-71439458D01*
X102671932Y-71439930D01*
X102666711Y-71441328D01*
X102666699Y-71441331D01*
X102463777Y-71495705D01*
X102463772Y-71495706D01*
X102458550Y-71497106D01*
X102453654Y-71499388D01*
X102453643Y-71499393D01*
X102263249Y-71588176D01*
X102263245Y-71588178D01*
X102258339Y-71590466D01*
X102253906Y-71593569D01*
X102253899Y-71593574D01*
X102081815Y-71714068D01*
X102081810Y-71714071D01*
X102077380Y-71717174D01*
X102073556Y-71720997D01*
X102073550Y-71721003D01*
X101925003Y-71869550D01*
X101924997Y-71869556D01*
X101921174Y-71873380D01*
X101918071Y-71877810D01*
X101918068Y-71877815D01*
X101797574Y-72049899D01*
X101797569Y-72049906D01*
X101794466Y-72054339D01*
X101792178Y-72059245D01*
X101792176Y-72059249D01*
X101703393Y-72249643D01*
X101703388Y-72249654D01*
X101701106Y-72254550D01*
X101699706Y-72259772D01*
X101699705Y-72259777D01*
X101645331Y-72462699D01*
X101645328Y-72462711D01*
X101643930Y-72467932D01*
X101643458Y-72473321D01*
X101643457Y-72473330D01*
X101625386Y-72679890D01*
X101624677Y-72688000D01*
X101625149Y-72693395D01*
X101643457Y-72902669D01*
X101643458Y-72902676D01*
X101643930Y-72908068D01*
X101645329Y-72913289D01*
X101645331Y-72913300D01*
X101699706Y-73116228D01*
X101699708Y-73116235D01*
X101701106Y-73121450D01*
X101794466Y-73321662D01*
X101797566Y-73326090D01*
X101797570Y-73326096D01*
X101877901Y-73440820D01*
X101921174Y-73502620D01*
X102077380Y-73658826D01*
X102134115Y-73698552D01*
X102253903Y-73782429D01*
X102253906Y-73782430D01*
X102258338Y-73785534D01*
X102387189Y-73845618D01*
X102439364Y-73891373D01*
X102458784Y-73957998D01*
X102439365Y-74024623D01*
X102387190Y-74070381D01*
X102263245Y-74128178D01*
X102263242Y-74128179D01*
X102258339Y-74130466D01*
X102253906Y-74133569D01*
X102253899Y-74133574D01*
X102081815Y-74254068D01*
X102081810Y-74254071D01*
X102077380Y-74257174D01*
X102073556Y-74260997D01*
X102073550Y-74261003D01*
X101925003Y-74409550D01*
X101924997Y-74409556D01*
X101921174Y-74413380D01*
X101918071Y-74417810D01*
X101918068Y-74417815D01*
X101797574Y-74589899D01*
X101797569Y-74589906D01*
X101794466Y-74594339D01*
X101792178Y-74599245D01*
X101792176Y-74599249D01*
X101703393Y-74789643D01*
X101703388Y-74789654D01*
X101701106Y-74794550D01*
X101699706Y-74799772D01*
X101699705Y-74799777D01*
X101645331Y-75002699D01*
X101645328Y-75002711D01*
X101643930Y-75007932D01*
X101643458Y-75013321D01*
X101643457Y-75013330D01*
X101630408Y-75162496D01*
X101624677Y-75228000D01*
X101625149Y-75233395D01*
X101643457Y-75442669D01*
X101643458Y-75442676D01*
X101643930Y-75448068D01*
X101645329Y-75453289D01*
X101645331Y-75453300D01*
X101699706Y-75656228D01*
X101699708Y-75656235D01*
X101701106Y-75661450D01*
X101724779Y-75712217D01*
X101788289Y-75848417D01*
X101794466Y-75861662D01*
X101797566Y-75866090D01*
X101797570Y-75866096D01*
X101881334Y-75985723D01*
X101921174Y-76042620D01*
X102077380Y-76198826D01*
X102154530Y-76252847D01*
X102253903Y-76322429D01*
X102253906Y-76322430D01*
X102258338Y-76325534D01*
X102387189Y-76385618D01*
X102439364Y-76431373D01*
X102458784Y-76497998D01*
X102439365Y-76564623D01*
X102387190Y-76610381D01*
X102263245Y-76668178D01*
X102263242Y-76668179D01*
X102258339Y-76670466D01*
X102253906Y-76673569D01*
X102253899Y-76673574D01*
X102081815Y-76794068D01*
X102081810Y-76794071D01*
X102077380Y-76797174D01*
X102073556Y-76800997D01*
X102073550Y-76801003D01*
X101925003Y-76949550D01*
X101924997Y-76949556D01*
X101921174Y-76953380D01*
X101918071Y-76957810D01*
X101918068Y-76957815D01*
X101797574Y-77129899D01*
X101797569Y-77129906D01*
X101794466Y-77134339D01*
X101792178Y-77139245D01*
X101792176Y-77139249D01*
X101703393Y-77329643D01*
X101703388Y-77329654D01*
X101701106Y-77334550D01*
X101699706Y-77339772D01*
X101699705Y-77339777D01*
X101645331Y-77542699D01*
X101645328Y-77542711D01*
X101643930Y-77547932D01*
X101643458Y-77553321D01*
X101643457Y-77553330D01*
X101630408Y-77702496D01*
X101624677Y-77768000D01*
X101625149Y-77773395D01*
X101643457Y-77982669D01*
X101643458Y-77982676D01*
X101643930Y-77988068D01*
X101645329Y-77993289D01*
X101645331Y-77993300D01*
X101699706Y-78196228D01*
X101699708Y-78196235D01*
X101701106Y-78201450D01*
X101703392Y-78206352D01*
X101787427Y-78386568D01*
X101794466Y-78401662D01*
X101797566Y-78406090D01*
X101797570Y-78406096D01*
X101881528Y-78526000D01*
X101921174Y-78582620D01*
X102077380Y-78738826D01*
X102154530Y-78792847D01*
X102253903Y-78862429D01*
X102253906Y-78862430D01*
X102258338Y-78865534D01*
X102387189Y-78925618D01*
X102439364Y-78971373D01*
X102458784Y-79037998D01*
X102439365Y-79104623D01*
X102387190Y-79150381D01*
X102263245Y-79208178D01*
X102263242Y-79208179D01*
X102258339Y-79210466D01*
X102253906Y-79213569D01*
X102253899Y-79213574D01*
X102081815Y-79334068D01*
X102081810Y-79334071D01*
X102077380Y-79337174D01*
X102073556Y-79340997D01*
X102073550Y-79341003D01*
X101925003Y-79489550D01*
X101924997Y-79489556D01*
X101921174Y-79493380D01*
X101918071Y-79497810D01*
X101918068Y-79497815D01*
X101797574Y-79669899D01*
X101797569Y-79669906D01*
X101794466Y-79674339D01*
X101792178Y-79679245D01*
X101792176Y-79679249D01*
X101703393Y-79869643D01*
X101703388Y-79869654D01*
X101701106Y-79874550D01*
X101699706Y-79879772D01*
X101699705Y-79879777D01*
X101645331Y-80082699D01*
X101645328Y-80082711D01*
X101643930Y-80087932D01*
X101643458Y-80093321D01*
X101643457Y-80093330D01*
X101630408Y-80242496D01*
X101624677Y-80308000D01*
X101625149Y-80313395D01*
X101643457Y-80522669D01*
X101643458Y-80522676D01*
X101643930Y-80528068D01*
X101645329Y-80533289D01*
X101645331Y-80533300D01*
X101699706Y-80736228D01*
X101699708Y-80736235D01*
X101701106Y-80741450D01*
X101703392Y-80746352D01*
X101788493Y-80928854D01*
X101794466Y-80941662D01*
X101797566Y-80946090D01*
X101797570Y-80946096D01*
X101881526Y-81065997D01*
X101921174Y-81122620D01*
X102077380Y-81278826D01*
X102154530Y-81332847D01*
X102253903Y-81402429D01*
X102253906Y-81402430D01*
X102258338Y-81405534D01*
X102387189Y-81465618D01*
X102439364Y-81511373D01*
X102458784Y-81577998D01*
X102439365Y-81644623D01*
X102387190Y-81690381D01*
X102263245Y-81748178D01*
X102263242Y-81748179D01*
X102258339Y-81750466D01*
X102253906Y-81753569D01*
X102253899Y-81753574D01*
X102081815Y-81874068D01*
X102081810Y-81874071D01*
X102077380Y-81877174D01*
X102073556Y-81880997D01*
X102073550Y-81881003D01*
X101925003Y-82029550D01*
X101924997Y-82029556D01*
X101921174Y-82033380D01*
X101918071Y-82037810D01*
X101918068Y-82037815D01*
X101797574Y-82209899D01*
X101797569Y-82209906D01*
X101794466Y-82214339D01*
X101792178Y-82219245D01*
X101792176Y-82219249D01*
X101703393Y-82409643D01*
X101703388Y-82409654D01*
X101701106Y-82414550D01*
X101699706Y-82419772D01*
X101699705Y-82419777D01*
X101645331Y-82622699D01*
X101645328Y-82622711D01*
X101643930Y-82627932D01*
X101643458Y-82633321D01*
X101643457Y-82633330D01*
X101630408Y-82782496D01*
X101624677Y-82848000D01*
X101625149Y-82853395D01*
X101643457Y-83062669D01*
X101643458Y-83062676D01*
X101643930Y-83068068D01*
X101645329Y-83073289D01*
X101645331Y-83073300D01*
X101699706Y-83276228D01*
X101699708Y-83276235D01*
X101701106Y-83281450D01*
X101703392Y-83286352D01*
X101787427Y-83466568D01*
X101794466Y-83481662D01*
X101797566Y-83486090D01*
X101797570Y-83486096D01*
X101881528Y-83606000D01*
X101921174Y-83662620D01*
X102077380Y-83818826D01*
X102154530Y-83872847D01*
X102253903Y-83942429D01*
X102253906Y-83942430D01*
X102258338Y-83945534D01*
X102387189Y-84005618D01*
X102439364Y-84051373D01*
X102458784Y-84117998D01*
X102439365Y-84184623D01*
X102387190Y-84230381D01*
X102263245Y-84288178D01*
X102263242Y-84288179D01*
X102258339Y-84290466D01*
X102253906Y-84293569D01*
X102253899Y-84293574D01*
X102081815Y-84414068D01*
X102081810Y-84414071D01*
X102077380Y-84417174D01*
X102073556Y-84420997D01*
X102073550Y-84421003D01*
X101925003Y-84569550D01*
X101924997Y-84569556D01*
X101921174Y-84573380D01*
X101918071Y-84577810D01*
X101918068Y-84577815D01*
X101797574Y-84749899D01*
X101797569Y-84749906D01*
X101794466Y-84754339D01*
X101792178Y-84759245D01*
X101792176Y-84759249D01*
X101703393Y-84949643D01*
X101703388Y-84949654D01*
X101701106Y-84954550D01*
X101699706Y-84959772D01*
X101699705Y-84959777D01*
X101645331Y-85162699D01*
X101645328Y-85162711D01*
X101643930Y-85167932D01*
X101643458Y-85173321D01*
X101643457Y-85173330D01*
X101630408Y-85322496D01*
X101624677Y-85388000D01*
X101625149Y-85393395D01*
X101643457Y-85602669D01*
X101643458Y-85602676D01*
X101643930Y-85608068D01*
X101645329Y-85613289D01*
X101645331Y-85613300D01*
X101699706Y-85816228D01*
X101699708Y-85816235D01*
X101701106Y-85821450D01*
X101703392Y-85826352D01*
X101788493Y-86008854D01*
X101794466Y-86021662D01*
X101797566Y-86026090D01*
X101797570Y-86026096D01*
X101864666Y-86121918D01*
X101921174Y-86202620D01*
X102077380Y-86358826D01*
X102154530Y-86412847D01*
X102253903Y-86482429D01*
X102253906Y-86482430D01*
X102258338Y-86485534D01*
X102387189Y-86545618D01*
X102439364Y-86591373D01*
X102458784Y-86657998D01*
X102439365Y-86724623D01*
X102387190Y-86770381D01*
X102263245Y-86828178D01*
X102263242Y-86828179D01*
X102258339Y-86830466D01*
X102253906Y-86833569D01*
X102253899Y-86833574D01*
X102081815Y-86954068D01*
X102081810Y-86954071D01*
X102077380Y-86957174D01*
X102073556Y-86960997D01*
X102073550Y-86961003D01*
X101925003Y-87109550D01*
X101924997Y-87109556D01*
X101921174Y-87113380D01*
X101918071Y-87117810D01*
X101918068Y-87117815D01*
X101797574Y-87289899D01*
X101797569Y-87289906D01*
X101794466Y-87294339D01*
X101792178Y-87299245D01*
X101792176Y-87299249D01*
X101703393Y-87489643D01*
X101703388Y-87489654D01*
X101701106Y-87494550D01*
X101699706Y-87499772D01*
X101699705Y-87499777D01*
X101645331Y-87702699D01*
X101645328Y-87702711D01*
X101643930Y-87707932D01*
X101643458Y-87713321D01*
X101643457Y-87713330D01*
X101630408Y-87862496D01*
X101624677Y-87928000D01*
X101625149Y-87933395D01*
X101643457Y-88142669D01*
X101643458Y-88142676D01*
X101643930Y-88148068D01*
X101645329Y-88153289D01*
X101645331Y-88153300D01*
X101699706Y-88356228D01*
X101699708Y-88356235D01*
X101701106Y-88361450D01*
X101724779Y-88412217D01*
X101788289Y-88548417D01*
X101794466Y-88561662D01*
X101797566Y-88566090D01*
X101797570Y-88566096D01*
X101881528Y-88686000D01*
X101921174Y-88742620D01*
X102077380Y-88898826D01*
X102154530Y-88952847D01*
X102253903Y-89022429D01*
X102253906Y-89022430D01*
X102258338Y-89025534D01*
X102387189Y-89085618D01*
X102439364Y-89131373D01*
X102458784Y-89197998D01*
X102439365Y-89264623D01*
X102387190Y-89310381D01*
X102263245Y-89368178D01*
X102263242Y-89368179D01*
X102258339Y-89370466D01*
X102253906Y-89373569D01*
X102253899Y-89373574D01*
X102081815Y-89494068D01*
X102081810Y-89494071D01*
X102077380Y-89497174D01*
X102073556Y-89500997D01*
X102073550Y-89501003D01*
X101925003Y-89649550D01*
X101924997Y-89649556D01*
X101921174Y-89653380D01*
X101918071Y-89657810D01*
X101918068Y-89657815D01*
X101797574Y-89829899D01*
X101797569Y-89829906D01*
X101794466Y-89834339D01*
X101792178Y-89839245D01*
X101792176Y-89839249D01*
X101703393Y-90029643D01*
X101703388Y-90029654D01*
X101701106Y-90034550D01*
X101699706Y-90039772D01*
X101699705Y-90039777D01*
X101645331Y-90242699D01*
X101645328Y-90242711D01*
X101643930Y-90247932D01*
X101643458Y-90253321D01*
X101643457Y-90253330D01*
X101630408Y-90402496D01*
X101624677Y-90468000D01*
X101625149Y-90473395D01*
X101643457Y-90682669D01*
X101643458Y-90682676D01*
X101643930Y-90688068D01*
X101645329Y-90693289D01*
X101645331Y-90693300D01*
X101699706Y-90896228D01*
X101699708Y-90896235D01*
X101701106Y-90901450D01*
X101703392Y-90906352D01*
X101787427Y-91086568D01*
X101794466Y-91101662D01*
X101797566Y-91106090D01*
X101797570Y-91106096D01*
X101866558Y-91204620D01*
X101921174Y-91282620D01*
X102077380Y-91438826D01*
X102154530Y-91492847D01*
X102253903Y-91562429D01*
X102253906Y-91562430D01*
X102258338Y-91565534D01*
X102387189Y-91625618D01*
X102439364Y-91671373D01*
X102458784Y-91737998D01*
X102439365Y-91804623D01*
X102387190Y-91850381D01*
X102263245Y-91908178D01*
X102263242Y-91908179D01*
X102258339Y-91910466D01*
X102253906Y-91913569D01*
X102253899Y-91913574D01*
X102081815Y-92034068D01*
X102081810Y-92034071D01*
X102077380Y-92037174D01*
X102073556Y-92040997D01*
X102073550Y-92041003D01*
X101925003Y-92189550D01*
X101924997Y-92189556D01*
X101921174Y-92193380D01*
X101918071Y-92197810D01*
X101918068Y-92197815D01*
X101797574Y-92369899D01*
X101797569Y-92369906D01*
X101794466Y-92374339D01*
X101792178Y-92379245D01*
X101792176Y-92379249D01*
X101703393Y-92569643D01*
X101703388Y-92569654D01*
X101701106Y-92574550D01*
X101699706Y-92579772D01*
X101699705Y-92579777D01*
X101645331Y-92782699D01*
X101645328Y-92782711D01*
X101643930Y-92787932D01*
X101643458Y-92793321D01*
X101643457Y-92793330D01*
X101630408Y-92942496D01*
X101624677Y-93008000D01*
X101625149Y-93013395D01*
X101643457Y-93222669D01*
X101643458Y-93222676D01*
X101643930Y-93228068D01*
X101645329Y-93233289D01*
X101645331Y-93233300D01*
X101699706Y-93436228D01*
X101699708Y-93436235D01*
X101701106Y-93441450D01*
X101703392Y-93446352D01*
X101787427Y-93626568D01*
X101794466Y-93641662D01*
X101797566Y-93646090D01*
X101797570Y-93646096D01*
X101863180Y-93739796D01*
X101921174Y-93822620D01*
X102077380Y-93978826D01*
X102167858Y-94042179D01*
X102253903Y-94102429D01*
X102253906Y-94102430D01*
X102258338Y-94105534D01*
X102387189Y-94165618D01*
X102439364Y-94211373D01*
X102458784Y-94277998D01*
X102439365Y-94344623D01*
X102387190Y-94390381D01*
X102263245Y-94448178D01*
X102263242Y-94448179D01*
X102258339Y-94450466D01*
X102253906Y-94453569D01*
X102253899Y-94453574D01*
X102081815Y-94574068D01*
X102081810Y-94574071D01*
X102077380Y-94577174D01*
X102073556Y-94580997D01*
X102073550Y-94581003D01*
X101925003Y-94729550D01*
X101924997Y-94729556D01*
X101921174Y-94733380D01*
X101918071Y-94737810D01*
X101918068Y-94737815D01*
X101797574Y-94909899D01*
X101797569Y-94909906D01*
X101794466Y-94914339D01*
X101792178Y-94919245D01*
X101792176Y-94919249D01*
X101703393Y-95109643D01*
X101703388Y-95109654D01*
X101701106Y-95114550D01*
X101699706Y-95119772D01*
X101699705Y-95119777D01*
X101645331Y-95322699D01*
X101645328Y-95322711D01*
X101643930Y-95327932D01*
X101643458Y-95333321D01*
X101643457Y-95333330D01*
X101625386Y-95539890D01*
X101624677Y-95548000D01*
X101625149Y-95553395D01*
X101643457Y-95762669D01*
X101643458Y-95762676D01*
X101643930Y-95768068D01*
X101645329Y-95773289D01*
X101645331Y-95773300D01*
X101699706Y-95976228D01*
X101699708Y-95976235D01*
X101701106Y-95981450D01*
X101794466Y-96181662D01*
X101797566Y-96186090D01*
X101797570Y-96186096D01*
X101901173Y-96334056D01*
X101921174Y-96362620D01*
X102077380Y-96518826D01*
X102167858Y-96582179D01*
X102253903Y-96642429D01*
X102253906Y-96642430D01*
X102258338Y-96645534D01*
X102387189Y-96705618D01*
X102439364Y-96751373D01*
X102458784Y-96817998D01*
X102439365Y-96884623D01*
X102387190Y-96930381D01*
X102263245Y-96988178D01*
X102263242Y-96988179D01*
X102258339Y-96990466D01*
X102253906Y-96993569D01*
X102253899Y-96993574D01*
X102081815Y-97114068D01*
X102081810Y-97114071D01*
X102077380Y-97117174D01*
X102073556Y-97120997D01*
X102073550Y-97121003D01*
X101925003Y-97269550D01*
X101924997Y-97269556D01*
X101921174Y-97273380D01*
X101918071Y-97277810D01*
X101918068Y-97277815D01*
X101797574Y-97449899D01*
X101797569Y-97449906D01*
X101794466Y-97454339D01*
X101792178Y-97459245D01*
X101792176Y-97459249D01*
X101703393Y-97649643D01*
X101703388Y-97649654D01*
X101701106Y-97654550D01*
X101699706Y-97659772D01*
X101699705Y-97659777D01*
X101645331Y-97862699D01*
X101645328Y-97862711D01*
X101643930Y-97867932D01*
X101643458Y-97873321D01*
X101643457Y-97873330D01*
X101625386Y-98079890D01*
X101624677Y-98088000D01*
X101625149Y-98093395D01*
X101643457Y-98302669D01*
X101643458Y-98302676D01*
X101643930Y-98308068D01*
X101645329Y-98313289D01*
X101645331Y-98313300D01*
X101699706Y-98516228D01*
X101699708Y-98516235D01*
X101701106Y-98521450D01*
X101794466Y-98721662D01*
X101797566Y-98726090D01*
X101797570Y-98726096D01*
X101901173Y-98874056D01*
X101921174Y-98902620D01*
X102077380Y-99058826D01*
X102167859Y-99122180D01*
X102253903Y-99182429D01*
X102253906Y-99182430D01*
X102258338Y-99185534D01*
X102387189Y-99245618D01*
X102439364Y-99291373D01*
X102458784Y-99357998D01*
X102439365Y-99424623D01*
X102387190Y-99470381D01*
X102263245Y-99528178D01*
X102263242Y-99528179D01*
X102258339Y-99530466D01*
X102253906Y-99533569D01*
X102253899Y-99533574D01*
X102081815Y-99654068D01*
X102081810Y-99654071D01*
X102077380Y-99657174D01*
X102073556Y-99660997D01*
X102073550Y-99661003D01*
X101925003Y-99809550D01*
X101924997Y-99809556D01*
X101921174Y-99813380D01*
X101918071Y-99817810D01*
X101918068Y-99817815D01*
X101797574Y-99989899D01*
X101797569Y-99989906D01*
X101794466Y-99994339D01*
X101792178Y-99999245D01*
X101792176Y-99999249D01*
X101703393Y-100189643D01*
X101703388Y-100189654D01*
X101701106Y-100194550D01*
X101699706Y-100199772D01*
X101699705Y-100199777D01*
X101645331Y-100402699D01*
X101645328Y-100402711D01*
X101643930Y-100407932D01*
X101643458Y-100413321D01*
X101643457Y-100413330D01*
X101625386Y-100619890D01*
X101624677Y-100628000D01*
X101625149Y-100633395D01*
X101643457Y-100842669D01*
X101643458Y-100842676D01*
X101643930Y-100848068D01*
X101645329Y-100853289D01*
X101645331Y-100853300D01*
X101699706Y-101056228D01*
X101699708Y-101056235D01*
X101701106Y-101061450D01*
X101794466Y-101261662D01*
X101797566Y-101266090D01*
X101797570Y-101266096D01*
X101901173Y-101414056D01*
X101921174Y-101442620D01*
X102077380Y-101598826D01*
X102167859Y-101662180D01*
X102253903Y-101722429D01*
X102253906Y-101722430D01*
X102258338Y-101725534D01*
X102387189Y-101785618D01*
X102439364Y-101831373D01*
X102458784Y-101897998D01*
X102439365Y-101964623D01*
X102387190Y-102010381D01*
X102263245Y-102068178D01*
X102263242Y-102068179D01*
X102258339Y-102070466D01*
X102253906Y-102073569D01*
X102253899Y-102073574D01*
X102081815Y-102194068D01*
X102081810Y-102194071D01*
X102077380Y-102197174D01*
X102073556Y-102200997D01*
X102073550Y-102201003D01*
X101925003Y-102349550D01*
X101924997Y-102349556D01*
X101921174Y-102353380D01*
X101918071Y-102357810D01*
X101918068Y-102357815D01*
X101797574Y-102529899D01*
X101797569Y-102529906D01*
X101794466Y-102534339D01*
X101792178Y-102539245D01*
X101792176Y-102539249D01*
X101703393Y-102729643D01*
X101703388Y-102729654D01*
X101701106Y-102734550D01*
X101699706Y-102739772D01*
X101699705Y-102739777D01*
X101645331Y-102942699D01*
X101645328Y-102942711D01*
X101643930Y-102947932D01*
X101643458Y-102953321D01*
X101643457Y-102953330D01*
X101625386Y-103159890D01*
X101624677Y-103168000D01*
X101625149Y-103173395D01*
X101643457Y-103382669D01*
X101643458Y-103382676D01*
X101643930Y-103388068D01*
X101645329Y-103393289D01*
X101645331Y-103393300D01*
X101699706Y-103596228D01*
X101699708Y-103596235D01*
X101701106Y-103601450D01*
X101731193Y-103665972D01*
X101783311Y-103777741D01*
X101794466Y-103801662D01*
X101797566Y-103806090D01*
X101797570Y-103806096D01*
X101862111Y-103898269D01*
X101921174Y-103982620D01*
X102077380Y-104138826D01*
X102167858Y-104202179D01*
X102253903Y-104262429D01*
X102253906Y-104262430D01*
X102258338Y-104265534D01*
X102387189Y-104325618D01*
X102439364Y-104371373D01*
X102458784Y-104437998D01*
X102439365Y-104504623D01*
X102387190Y-104550381D01*
X102263245Y-104608178D01*
X102263242Y-104608179D01*
X102258339Y-104610466D01*
X102253906Y-104613569D01*
X102253899Y-104613574D01*
X102081815Y-104734068D01*
X102081810Y-104734071D01*
X102077380Y-104737174D01*
X102073556Y-104740997D01*
X102073550Y-104741003D01*
X101925003Y-104889550D01*
X101924997Y-104889556D01*
X101921174Y-104893380D01*
X101918071Y-104897810D01*
X101918068Y-104897815D01*
X101797574Y-105069899D01*
X101797569Y-105069906D01*
X101794466Y-105074339D01*
X101792178Y-105079245D01*
X101792176Y-105079249D01*
X101703393Y-105269643D01*
X101703388Y-105269654D01*
X101701106Y-105274550D01*
X101699706Y-105279772D01*
X101699705Y-105279777D01*
X101645331Y-105482699D01*
X101645328Y-105482711D01*
X101643930Y-105487932D01*
X101643458Y-105493321D01*
X101643457Y-105493330D01*
X101629564Y-105652142D01*
X101624677Y-105708000D01*
X101625149Y-105713395D01*
X101643457Y-105922669D01*
X101643458Y-105922676D01*
X101643930Y-105928068D01*
X101645329Y-105933289D01*
X101645331Y-105933300D01*
X101699706Y-106136228D01*
X101699708Y-106136235D01*
X101701106Y-106141450D01*
X101794466Y-106341662D01*
X101797566Y-106346090D01*
X101797570Y-106346096D01*
X101882463Y-106467335D01*
X101921174Y-106522620D01*
X102077380Y-106678826D01*
X102136183Y-106720000D01*
X102253903Y-106802429D01*
X102253906Y-106802430D01*
X102258338Y-106805534D01*
X102387189Y-106865618D01*
X102439364Y-106911373D01*
X102458784Y-106977998D01*
X102439365Y-107044623D01*
X102387190Y-107090381D01*
X102263245Y-107148178D01*
X102263242Y-107148179D01*
X102258339Y-107150466D01*
X102253906Y-107153569D01*
X102253899Y-107153574D01*
X102081815Y-107274068D01*
X102081810Y-107274071D01*
X102077380Y-107277174D01*
X102073556Y-107280997D01*
X102073550Y-107281003D01*
X101925003Y-107429550D01*
X101924997Y-107429556D01*
X101921174Y-107433380D01*
X101918071Y-107437810D01*
X101918068Y-107437815D01*
X101797574Y-107609899D01*
X101797569Y-107609906D01*
X101794466Y-107614339D01*
X101792178Y-107619245D01*
X101792176Y-107619249D01*
X101703393Y-107809643D01*
X101703388Y-107809654D01*
X101701106Y-107814550D01*
X101699706Y-107819772D01*
X101699705Y-107819777D01*
X101645331Y-108022699D01*
X101645328Y-108022711D01*
X101643930Y-108027932D01*
X101643458Y-108033321D01*
X101643457Y-108033330D01*
X101626650Y-108225451D01*
X101624677Y-108248000D01*
X101625149Y-108253395D01*
X101643457Y-108462669D01*
X101643458Y-108462676D01*
X101643930Y-108468068D01*
X101645329Y-108473289D01*
X101645331Y-108473300D01*
X101699706Y-108676228D01*
X101699708Y-108676235D01*
X101701106Y-108681450D01*
X101794466Y-108881662D01*
X101797566Y-108886090D01*
X101797570Y-108886096D01*
X101901173Y-109034056D01*
X101921174Y-109062620D01*
X102077380Y-109218826D01*
X102167859Y-109282180D01*
X102253903Y-109342429D01*
X102253906Y-109342430D01*
X102258338Y-109345534D01*
X102387189Y-109405618D01*
X102439364Y-109451373D01*
X102458784Y-109517998D01*
X102439365Y-109584623D01*
X102387190Y-109630381D01*
X102263245Y-109688178D01*
X102263242Y-109688179D01*
X102258339Y-109690466D01*
X102253906Y-109693569D01*
X102253899Y-109693574D01*
X102081815Y-109814068D01*
X102081810Y-109814071D01*
X102077380Y-109817174D01*
X102073556Y-109820997D01*
X102073550Y-109821003D01*
X101925003Y-109969550D01*
X101924997Y-109969556D01*
X101921174Y-109973380D01*
X101918071Y-109977810D01*
X101918068Y-109977815D01*
X101797574Y-110149899D01*
X101797569Y-110149906D01*
X101794466Y-110154339D01*
X101792178Y-110159245D01*
X101792176Y-110159249D01*
X101703393Y-110349643D01*
X101703388Y-110349654D01*
X101701106Y-110354550D01*
X101699706Y-110359772D01*
X101699705Y-110359777D01*
X101645331Y-110562699D01*
X101645328Y-110562711D01*
X101643930Y-110567932D01*
X101643458Y-110573321D01*
X101643457Y-110573330D01*
X101632565Y-110697835D01*
X101624677Y-110788000D01*
X101625149Y-110793395D01*
X101643457Y-111002669D01*
X101643458Y-111002676D01*
X101643930Y-111008068D01*
X101645329Y-111013289D01*
X101645331Y-111013300D01*
X101699706Y-111216228D01*
X101699708Y-111216235D01*
X101701106Y-111221450D01*
X101794466Y-111421662D01*
X101797566Y-111426090D01*
X101797570Y-111426096D01*
X101901173Y-111574056D01*
X101921174Y-111602620D01*
X102077380Y-111758826D01*
X102167858Y-111822179D01*
X102253903Y-111882429D01*
X102253906Y-111882430D01*
X102258338Y-111885534D01*
X102387189Y-111945618D01*
X102439364Y-111991373D01*
X102458784Y-112057998D01*
X102439365Y-112124623D01*
X102387190Y-112170381D01*
X102263245Y-112228178D01*
X102263242Y-112228179D01*
X102258339Y-112230466D01*
X102253906Y-112233569D01*
X102253899Y-112233574D01*
X102081815Y-112354068D01*
X102081810Y-112354071D01*
X102077380Y-112357174D01*
X102073556Y-112360997D01*
X102073550Y-112361003D01*
X101925003Y-112509550D01*
X101924997Y-112509556D01*
X101921174Y-112513380D01*
X101918071Y-112517810D01*
X101918068Y-112517815D01*
X101797574Y-112689899D01*
X101797569Y-112689906D01*
X101794466Y-112694339D01*
X101792178Y-112699245D01*
X101792176Y-112699249D01*
X101703393Y-112889643D01*
X101703388Y-112889654D01*
X101701106Y-112894550D01*
X101699706Y-112899772D01*
X101699705Y-112899777D01*
X101645331Y-113102699D01*
X101645328Y-113102711D01*
X101643930Y-113107932D01*
X101643458Y-113113321D01*
X101643457Y-113113330D01*
X101625386Y-113319890D01*
X101624677Y-113328000D01*
X101625149Y-113333395D01*
X101643457Y-113542669D01*
X101643458Y-113542676D01*
X101643930Y-113548068D01*
X101645329Y-113553289D01*
X101645331Y-113553300D01*
X101699706Y-113756228D01*
X101699708Y-113756235D01*
X101701106Y-113761450D01*
X101703392Y-113766352D01*
X101764066Y-113896470D01*
X101794466Y-113961662D01*
X101797566Y-113966090D01*
X101797570Y-113966096D01*
X101891842Y-114100729D01*
X101921174Y-114142620D01*
X102077380Y-114298826D01*
X102124365Y-114331725D01*
X102253903Y-114422429D01*
X102253906Y-114422430D01*
X102258338Y-114425534D01*
X102387781Y-114485894D01*
X102439956Y-114531649D01*
X102459376Y-114598274D01*
X102439957Y-114664899D01*
X102387782Y-114710657D01*
X102263494Y-114768614D01*
X102254154Y-114774006D01*
X102204936Y-114808468D01*
X102197502Y-114816581D01*
X102203413Y-114825859D01*
X102880457Y-115502903D01*
X102892000Y-115509567D01*
X102903542Y-115502903D01*
X103580582Y-114825862D01*
X103586496Y-114816579D01*
X103579065Y-114808470D01*
X103529848Y-114774008D01*
X103520496Y-114768609D01*
X103396218Y-114710658D01*
X103344042Y-114664901D01*
X103324622Y-114598276D01*
X103344042Y-114531651D01*
X103396216Y-114485895D01*
X103525662Y-114425534D01*
X103706620Y-114298826D01*
X103862826Y-114142620D01*
X103989534Y-113961662D01*
X104049618Y-113832808D01*
X104095375Y-113780634D01*
X104162000Y-113761214D01*
X104228625Y-113780634D01*
X104274381Y-113832808D01*
X104334466Y-113961662D01*
X104337566Y-113966090D01*
X104337570Y-113966096D01*
X104431842Y-114100729D01*
X104461174Y-114142620D01*
X104617380Y-114298826D01*
X104664365Y-114331725D01*
X104793903Y-114422429D01*
X104793906Y-114422430D01*
X104798338Y-114425534D01*
X104927189Y-114485618D01*
X104979364Y-114531373D01*
X104998784Y-114597998D01*
X104979365Y-114664623D01*
X104927190Y-114710381D01*
X104803245Y-114768178D01*
X104803242Y-114768179D01*
X104798339Y-114770466D01*
X104793906Y-114773569D01*
X104793899Y-114773574D01*
X104621815Y-114894068D01*
X104621810Y-114894071D01*
X104617380Y-114897174D01*
X104613556Y-114900997D01*
X104613550Y-114901003D01*
X104465003Y-115049550D01*
X104464997Y-115049556D01*
X104461174Y-115053380D01*
X104458071Y-115057810D01*
X104458068Y-115057815D01*
X104337574Y-115229899D01*
X104337569Y-115229906D01*
X104334466Y-115234339D01*
X104332179Y-115239242D01*
X104332178Y-115239245D01*
X104274105Y-115363782D01*
X104228347Y-115415957D01*
X104161722Y-115435376D01*
X104095097Y-115415956D01*
X104049341Y-115363780D01*
X103991391Y-115239504D01*
X103985990Y-115230150D01*
X103951529Y-115180935D01*
X103943418Y-115173502D01*
X103934139Y-115179413D01*
X103257095Y-115856457D01*
X103250431Y-115868000D01*
X103257095Y-115879542D01*
X103934136Y-116556582D01*
X103943419Y-116562496D01*
X103951528Y-116555064D01*
X103985989Y-116505851D01*
X103991388Y-116496499D01*
X104049340Y-116372219D01*
X104095097Y-116320042D01*
X104161722Y-116300622D01*
X104228348Y-116320041D01*
X104274105Y-116372217D01*
X104334466Y-116501662D01*
X104337566Y-116506090D01*
X104337570Y-116506096D01*
X104371858Y-116555064D01*
X104461174Y-116682620D01*
X104617380Y-116838826D01*
X104707858Y-116902179D01*
X104793903Y-116962429D01*
X104793906Y-116962430D01*
X104798338Y-116965534D01*
X104927189Y-117025618D01*
X104979364Y-117071373D01*
X104998784Y-117137998D01*
X104979365Y-117204623D01*
X104927190Y-117250381D01*
X104803245Y-117308178D01*
X104803242Y-117308179D01*
X104798339Y-117310466D01*
X104793906Y-117313569D01*
X104793899Y-117313574D01*
X104621815Y-117434068D01*
X104621810Y-117434071D01*
X104617380Y-117437174D01*
X104613556Y-117440997D01*
X104613550Y-117441003D01*
X104465003Y-117589550D01*
X104464997Y-117589556D01*
X104461174Y-117593380D01*
X104458071Y-117597810D01*
X104458068Y-117597815D01*
X104337574Y-117769899D01*
X104337569Y-117769906D01*
X104334466Y-117774339D01*
X104332178Y-117779245D01*
X104332176Y-117779249D01*
X104274382Y-117903189D01*
X104228625Y-117955365D01*
X104162000Y-117974784D01*
X104095375Y-117955365D01*
X104049618Y-117903189D01*
X104034194Y-117870112D01*
X103989534Y-117774339D01*
X103862826Y-117593380D01*
X103706620Y-117437174D01*
X103678056Y-117417173D01*
X103530096Y-117313570D01*
X103530090Y-117313566D01*
X103525662Y-117310466D01*
X103520760Y-117308180D01*
X103520758Y-117308179D01*
X103396217Y-117250105D01*
X103344041Y-117204348D01*
X103324622Y-117137722D01*
X103344042Y-117071097D01*
X103396219Y-117025340D01*
X103520499Y-116967388D01*
X103529851Y-116961989D01*
X103579064Y-116927528D01*
X103586496Y-116919419D01*
X103580582Y-116910136D01*
X102903542Y-116233095D01*
X102892000Y-116226431D01*
X102880457Y-116233095D01*
X102203416Y-116910136D01*
X102197503Y-116919418D01*
X102204936Y-116927530D01*
X102254151Y-116961991D01*
X102263499Y-116967388D01*
X102387780Y-117025341D01*
X102439956Y-117071097D01*
X102459376Y-117137722D01*
X102439957Y-117204347D01*
X102387782Y-117250105D01*
X102263245Y-117308178D01*
X102263242Y-117308179D01*
X102258339Y-117310466D01*
X102253906Y-117313569D01*
X102253899Y-117313574D01*
X102081815Y-117434068D01*
X102081810Y-117434071D01*
X102077380Y-117437174D01*
X102073556Y-117440997D01*
X102073550Y-117441003D01*
X101925003Y-117589550D01*
X101924997Y-117589556D01*
X101921174Y-117593380D01*
X101918071Y-117597810D01*
X101918068Y-117597815D01*
X101797574Y-117769899D01*
X101797569Y-117769906D01*
X101794466Y-117774339D01*
X101792178Y-117779245D01*
X101792176Y-117779249D01*
X101703393Y-117969643D01*
X101703388Y-117969654D01*
X101701106Y-117974550D01*
X101699706Y-117979772D01*
X101699705Y-117979777D01*
X101645331Y-118182699D01*
X101645328Y-118182711D01*
X101643930Y-118187932D01*
X101643458Y-118193321D01*
X101643457Y-118193330D01*
X101625386Y-118399890D01*
X101624677Y-118408000D01*
X101625149Y-118413395D01*
X101643457Y-118622669D01*
X101643458Y-118622676D01*
X101643930Y-118628068D01*
X101645329Y-118633289D01*
X101645331Y-118633300D01*
X101699706Y-118836228D01*
X101699708Y-118836235D01*
X101701106Y-118841450D01*
X101794466Y-119041662D01*
X101797566Y-119046090D01*
X101797570Y-119046096D01*
X101901173Y-119194056D01*
X101921174Y-119222620D01*
X102077380Y-119378826D01*
X102167858Y-119442179D01*
X102253903Y-119502429D01*
X102253906Y-119502430D01*
X102258338Y-119505534D01*
X102387189Y-119565618D01*
X102439364Y-119611373D01*
X102458784Y-119677998D01*
X102439365Y-119744623D01*
X102387190Y-119790381D01*
X102263245Y-119848178D01*
X102263242Y-119848179D01*
X102258339Y-119850466D01*
X102253906Y-119853569D01*
X102253899Y-119853574D01*
X102081815Y-119974068D01*
X102081810Y-119974071D01*
X102077380Y-119977174D01*
X102073556Y-119980997D01*
X102073550Y-119981003D01*
X101925003Y-120129550D01*
X101924997Y-120129556D01*
X101921174Y-120133380D01*
X101918071Y-120137810D01*
X101918068Y-120137815D01*
X101797574Y-120309899D01*
X101797569Y-120309906D01*
X101794466Y-120314339D01*
X101792178Y-120319245D01*
X101792176Y-120319249D01*
X101703393Y-120509643D01*
X101703388Y-120509654D01*
X101701106Y-120514550D01*
X101699706Y-120519772D01*
X101699705Y-120519777D01*
X101645331Y-120722699D01*
X101645328Y-120722711D01*
X101643930Y-120727932D01*
X101643458Y-120733321D01*
X101643457Y-120733330D01*
X101625386Y-120939890D01*
X101624677Y-120948000D01*
X101625149Y-120953395D01*
X101643457Y-121162669D01*
X101643458Y-121162676D01*
X101643930Y-121168068D01*
X101645329Y-121173289D01*
X101645331Y-121173300D01*
X101699706Y-121376228D01*
X101699708Y-121376235D01*
X101701106Y-121381450D01*
X101794466Y-121581662D01*
X101797566Y-121586090D01*
X101797570Y-121586096D01*
X101840074Y-121646797D01*
X101921174Y-121762620D01*
X102077380Y-121918826D01*
X102125230Y-121952331D01*
X102253903Y-122042429D01*
X102253906Y-122042430D01*
X102258338Y-122045534D01*
X102458550Y-122138894D01*
X102463770Y-122140292D01*
X102463771Y-122140293D01*
X102666699Y-122194668D01*
X102666701Y-122194668D01*
X102671932Y-122196070D01*
X102852382Y-122211857D01*
X102914107Y-122234812D01*
X102955374Y-122286137D01*
X102964540Y-122351354D01*
X102939020Y-122412066D01*
X102886011Y-122451148D01*
X102698566Y-122523102D01*
X102698557Y-122523105D01*
X102695535Y-122524266D01*
X102692658Y-122525731D01*
X102692642Y-122525739D01*
X102362173Y-122694122D01*
X102362159Y-122694129D01*
X102359280Y-122695597D01*
X102356560Y-122697363D01*
X102356552Y-122697368D01*
X102045503Y-122899365D01*
X102045497Y-122899368D01*
X102042775Y-122901137D01*
X102040255Y-122903177D01*
X102040249Y-122903182D01*
X101752007Y-123136595D01*
X101751996Y-123136604D01*
X101749489Y-123138635D01*
X101747204Y-123140919D01*
X101747194Y-123140929D01*
X101484929Y-123403194D01*
X101484919Y-123403204D01*
X101482635Y-123405489D01*
X101480604Y-123407996D01*
X101480595Y-123408007D01*
X101247182Y-123696249D01*
X101247177Y-123696255D01*
X101245137Y-123698775D01*
X101243368Y-123701497D01*
X101243365Y-123701503D01*
X101041368Y-124012552D01*
X101041363Y-124012560D01*
X101039597Y-124015280D01*
X101038129Y-124018159D01*
X101038122Y-124018173D01*
X100869739Y-124348642D01*
X100869731Y-124348658D01*
X100868266Y-124351535D01*
X100867105Y-124354557D01*
X100867102Y-124354566D01*
X100734182Y-124700833D01*
X100734177Y-124700846D01*
X100733022Y-124703857D01*
X100732186Y-124706975D01*
X100732183Y-124706986D01*
X100636186Y-125065253D01*
X100636183Y-125065266D01*
X100635347Y-125068387D01*
X100634841Y-125071578D01*
X100634838Y-125071595D01*
X100576817Y-125437923D01*
X100576815Y-125437937D01*
X100576310Y-125441129D01*
X100576140Y-125444359D01*
X100576140Y-125444366D01*
X100561857Y-125716907D01*
X100556559Y-125818000D01*
X94791500Y-125818000D01*
X94791500Y-115873395D01*
X101625651Y-115873395D01*
X101643952Y-116082581D01*
X101645826Y-116093213D01*
X101700178Y-116296056D01*
X101703864Y-116306180D01*
X101792609Y-116496496D01*
X101798008Y-116505848D01*
X101832470Y-116555065D01*
X101840579Y-116562496D01*
X101849862Y-116556582D01*
X102526903Y-115879542D01*
X102533567Y-115868000D01*
X102526903Y-115856457D01*
X101849859Y-115179413D01*
X101840581Y-115173502D01*
X101832468Y-115180936D01*
X101798006Y-115230154D01*
X101792612Y-115239498D01*
X101703865Y-115429815D01*
X101700177Y-115439949D01*
X101645826Y-115642786D01*
X101643952Y-115653418D01*
X101625651Y-115862605D01*
X101625651Y-115873395D01*
X94791500Y-115873395D01*
X94791500Y-63575794D01*
X162965972Y-63575794D01*
X162971843Y-63585690D01*
X164580457Y-65194304D01*
X164592000Y-65200968D01*
X164603542Y-65194304D01*
X166212155Y-63585690D01*
X166218027Y-63575794D01*
X166208576Y-63569233D01*
X166206644Y-63568512D01*
X166191664Y-63564972D01*
X166143114Y-63559753D01*
X166136518Y-63559400D01*
X163047482Y-63559400D01*
X163040885Y-63559753D01*
X162992332Y-63564973D01*
X162977356Y-63568512D01*
X162975423Y-63569233D01*
X162965972Y-63575794D01*
X94791500Y-63575794D01*
X94791500Y-63410500D01*
X94808113Y-63348500D01*
X94853500Y-63303113D01*
X94915500Y-63286500D01*
X192710500Y-63286500D01*
X192772500Y-63303113D01*
G37*
%TD.AperFunction*%
%TD*%
M02*
