M48
; DRILL file {KiCad (7.0.0)} date Tue Apr  4 12:28:13 2023
; FORMAT={-:-/ absolute / inch / decimal}
; #@! TF.CreationDate,2023-04-04T12:28:13-04:00
; #@! TF.GenerationSoftware,Kicad,Pcbnew,(7.0.0)
; #@! TF.FileFunction,Plated,1,2,PTH
FMAT,2
INCH
; #@! TA.AperFunction,Plated,PTH,ViaDrill
T1C0.0157
; #@! TA.AperFunction,Plated,PTH,ComponentDrill
T2C0.0315
; #@! TA.AperFunction,Plated,PTH,ComponentDrill
T3C0.0340
; #@! TA.AperFunction,Plated,PTH,ComponentDrill
T4C0.0370
; #@! TA.AperFunction,Plated,PTH,ComponentDrill
T5C0.0400
; #@! TA.AperFunction,Plated,PTH,ComponentDrill
T6C0.0420
; #@! TA.AperFunction,Plated,PTH,ComponentDrill
T7C0.0490
; #@! TA.AperFunction,Plated,PTH,ComponentDrill
T8C0.0591
; #@! TA.AperFunction,Plated,PTH,ComponentDrill
T9C0.0650
; #@! TA.AperFunction,Plated,PTH,ComponentDrill
T10C0.1083
%
G90
G05
T1
X3.79Y-4.67
X3.79Y-4.77
X3.79Y-4.87
X3.79Y-4.97
X3.79Y-5.07
X3.79Y-5.17
X3.85Y-2.58
X3.85Y-2.68
X3.85Y-2.78
X3.85Y-2.88
X3.85Y-2.98
X3.85Y-3.08
X3.85Y-3.18
X3.85Y-3.28
X3.85Y-3.38
X3.85Y-3.48
X3.85Y-3.58
X3.85Y-3.68
X3.85Y-3.78
X3.85Y-3.88
X3.85Y-3.98
X3.85Y-4.08
X3.85Y-4.18
X3.85Y-4.28
X3.85Y-4.38
X3.85Y-4.48
X4.25Y-3.525
X4.26Y-3.7
X4.28Y-2.9
X4.28Y-3.0
X4.28Y-3.1
X4.28Y-3.2
X4.28Y-3.37
X4.28Y-3.86
X4.28Y-3.96
X4.28Y-4.06
X4.28Y-4.16
X4.35Y-3.425
X4.41Y-2.9
X4.41Y-3.0
X4.41Y-3.1
X4.41Y-3.24
X4.62Y-2.57
X4.62Y-2.67
X4.62Y-2.77
X4.72Y-3.83
X4.72Y-3.93
X4.72Y-4.37
X4.8Y-2.57
X4.8Y-2.67
X4.8Y-2.77
X4.83Y-3.83
X4.83Y-3.93
X4.95Y-3.93
X4.95Y-4.03
X4.98Y-2.57
X4.98Y-2.67
X4.98Y-2.77
X4.98Y-2.88
X4.98Y-2.98
X4.98Y-3.08
X4.98Y-3.18
X5.0Y-3.54
X5.17Y-2.57
X5.17Y-2.67
X5.17Y-2.77
X5.17Y-3.54
X5.24Y-3.65
X5.35Y-2.57
X5.35Y-2.67
X5.35Y-2.77
X5.35Y-2.89
X5.35Y-2.98
X5.35Y-3.08
X5.35Y-3.18
X5.37Y-3.59
X5.37Y-3.69
X5.37Y-3.79
X5.48Y-4.39
X5.53Y-2.67
X5.53Y-2.77
X5.53Y-2.88
X5.53Y-2.98
X5.53Y-3.08
X5.53Y-3.18
X5.54Y-3.59
X5.54Y-3.69
X5.54Y-3.79
X5.54Y-3.9
X5.61Y-4.39
X5.71Y-3.59
X5.71Y-3.69
X5.71Y-3.79
X5.71Y-3.9
X5.75Y-4.39
X5.88Y-4.75
X5.91Y-3.08
X5.92Y-3.18
X5.92Y-3.29
X5.92Y-3.38
X5.92Y-3.48
X5.92Y-3.59
X5.93Y-3.68
X6.06Y-4.75
X6.06Y-5.15
X6.08Y-3.08
X6.08Y-3.18
X6.08Y-3.28
X6.08Y-3.38
X6.08Y-3.48
X6.08Y-3.58
X6.08Y-3.68
X6.08Y-3.78
X6.24Y-4.75
X6.24Y-4.85
X6.24Y-4.95
X6.24Y-5.05
X6.24Y-5.15
X6.25Y-3.08
X6.25Y-3.18
X6.25Y-3.28
X6.25Y-3.38
X6.25Y-3.48
X6.25Y-3.58
X6.25Y-3.68
X6.25Y-3.78
X6.42Y-4.75
X6.42Y-4.85
X6.42Y-4.95
X6.42Y-5.05
X6.42Y-5.15
X6.6Y-4.75
X6.6Y-4.85
X6.6Y-4.95
X6.6Y-5.05
X6.6Y-5.15
X6.78Y-4.75
X6.78Y-4.85
X6.78Y-4.95
X6.78Y-5.05
X6.78Y-5.15
X6.97Y-4.75
X6.97Y-4.85
X6.97Y-4.95
X6.97Y-5.05
X6.97Y-5.15
X7.15Y-4.75
X7.15Y-4.85
X7.15Y-4.95
X7.15Y-5.05
X7.15Y-5.15
X7.33Y-4.75
X7.33Y-4.85
X7.33Y-4.95
X7.33Y-5.05
X7.33Y-5.15
X7.34Y-3.09
X7.34Y-3.19
X7.34Y-3.58
X7.34Y-3.68
X7.34Y-3.78
X7.51Y-3.58
X7.51Y-3.68
X7.51Y-3.78
X7.51Y-3.93
X7.51Y-4.03
X7.51Y-4.13
X7.51Y-4.23
X7.51Y-4.33
X7.51Y-4.43
X7.51Y-4.53
X7.51Y-4.63
X7.51Y-4.75
X7.51Y-4.85
X7.51Y-4.95
X7.51Y-5.05
X7.51Y-5.15
X7.52Y-2.59
X7.52Y-2.69
X7.52Y-2.79
X7.52Y-2.89
X7.52Y-2.99
X7.52Y-3.09
X7.52Y-3.19
X7.52Y-3.32
X7.52Y-3.44
T2
X4.5419Y-2.9416
X4.5419Y-3.0416
X4.5419Y-3.1416
X4.5419Y-3.2416
X4.5419Y-3.3416
X4.5419Y-3.4416
X4.5419Y-3.5416
X4.5419Y-3.6416
X4.8419Y-2.9416
X4.8419Y-3.0416
X4.8419Y-3.1416
X4.8419Y-3.2416
X4.8419Y-3.3416
X4.8419Y-3.4416
X4.8419Y-3.5416
X4.8419Y-3.6416
T3
X5.7Y-2.87
X5.7Y-3.33
T4
X5.17Y-2.8563
X5.17Y-3.3663
T5
X4.0509Y-2.8617
X4.0509Y-2.9617
X4.0509Y-3.0617
X4.0509Y-3.1617
X4.0509Y-3.2617
X4.0509Y-3.3617
X4.0509Y-3.4617
X4.0509Y-3.5617
X4.0509Y-3.6617
X4.0509Y-3.7617
X4.0509Y-3.8617
X4.0509Y-3.9617
X4.0509Y-4.0617
X4.0509Y-4.1617
X4.0509Y-4.2617
X4.0509Y-4.3617
X4.0509Y-4.4617
X4.0509Y-4.5617
X4.0509Y-4.6617
X4.0509Y-4.7617
X4.1509Y-2.8617
X4.1509Y-2.9617
X4.1509Y-3.0617
X4.1509Y-3.1617
X4.1509Y-3.2617
X4.1509Y-3.3617
X4.1509Y-3.4617
X4.1509Y-3.5617
X4.1509Y-3.6617
X4.1509Y-3.7617
X4.1509Y-3.8617
X4.1509Y-3.9617
X4.1509Y-4.0617
X4.1509Y-4.1617
X4.1509Y-4.2617
X4.1509Y-4.3617
X4.1509Y-4.4617
X4.1509Y-4.5617
X4.1509Y-4.6617
X4.1509Y-4.7617
X4.2919Y-2.6216
X4.2919Y-2.7216
X4.3919Y-2.6216
X4.3919Y-2.7216
T6
X4.443Y-4.2016
X5.132Y-4.2016
T7
X4.8763Y-4.51
X5.0731Y-5.0021
X5.27Y-4.51
T8
X6.479Y-4.1591
X6.48Y-2.5811
X7.189Y-4.1591
X7.191Y-2.5831
T9
X5.3014Y-4.2016
X6.0914Y-4.2016
T10
X4.1009Y-2.67
X4.1009Y-4.9535
X6.03Y-2.67
X6.03Y-4.9535
T0
M30
